/* XPM */
static char * exit_xpm[] = {
"64 64 39 1",
" 	c #D7C6A2",
".	c #7F7F7F",
"+	c #161616",
"@	c #8E8E8E",
"#	c #606060",
"$	c #5C5C5C",
"%	c #585858",
"&	c #545454",
"*	c #505050",
"=	c #4C4C4C",
"-	c #484848",
";	c #444444",
">	c #797979",
",	c #404040",
"'	c #3C3C3C",
")	c #383838",
"!	c #343434",
"~	c #303030",
"{	c #2C2C2C",
"]	c #282828",
"^	c #242424",
"/	c #626262",
"(	c #202020",
"_	c #1C1C1C",
":	c #181818",
"<	c #141414",
"[	c #101010",
"}	c #0C0C0C",
"|	c #000000",
"1	c #010101",
"2	c #020202",
"3	c #4E4E4E",
"4	c #0B0B0B",
"5	c #030303",
"6	c #0A0A0A",
"7	c #090909",
"8	c #050505",
"9	c #3A3A3A",
"0	c #040404",
"                                                                ",
"                                                                ",
"                                                                ",
"                                                                ",
"                                                                ",
"        ...                           ..                        ",
"       .....                         ....                       ",
"++++++++++++++++++++++++++++++++++++++++++++++++++++++++++++++++",
"+@@@@@@@@@@@@@@@@@@@@@@@@@@@@@@@@@@@@@@@@@@@@@@@@@@@@@@@@@@@@@@+",
"+@@@@@@@@@@@@@@@@@@@@@@@@@@@@@@@@@@@@@@@@@@@@@@@@@@@@@@@@@@@@@@+",
"+@@@@@@@@@@@@@@@@@@@@@@@@@@@@@@@@@@@@@@@@@@@@@@@@@@@@@@@@@@@@@@+",
"+@@@@@@@@@@@@@@@@@@@@@@@@@@@@@@@@@@@@@@@@@@@@@@@@@@@@@@@@@@@@@@+",
"+@@@@@@@@@@@@@@@@@@@@@@@@@@@@@@@@@@@@@@@@@@@@@@@@@@@@@@@@@@@@@@+",
"+@@@@@@@@@+++++++++++++++++++++++++++++++++++++++++++++++++@@@@+",
"+@@@@@@@@@+###############################################+@@@@+",
"+@@@@@@@@@+$$$$$$$$$$$$$$$$$$$$$$$$$$$$$$$$$$$$$$$$$$$$$$$+@@@@+",
"+@@@@@@@@@+%%%%%%%%%%%%%%%%%%%%%%%%%%%%%%%%%%%%%%%%%%%%%%%+@@@@+",
"+@@@@@@@@@+&&&&&&&&&&&&&&&&&&&&&&&&&&&&&&&&&&&&&&&&&&&&&&&+@@@@+",
"+@@@@@@@@@+***********************************************+@@@@+",
"+@@@@@@@@@+===============================================+@@@@+",
"+@@@@@@@@@+-----------------------------------------------+@@@@+",
"+@@@@@@@@@++++++++++++++;;;;;;;;;;;;;;;;;;;;;;;;;;;;;;;;;;+@@@@+",
"+@@@@@@@@@+>>>>>>>>>>>>+,,,,,,,,,,,,,,,,,,,,,,,,,,,,,,,,,,+@@@@+",
"+@@@@@@@@@+>>>>>>>>>>>>+''''''''''''''''''''''''''''''''''+@@@@+",
"+@@@@@@@@@+>>>>>>>>>>>>+))))))))))))))))))))))))))))))))))+@@@@+",
"+@@@@@@@@@+>>>>>>>>>>>>+!!!!!!!!!!!!!!!!!!!!!!!!!!!!!!!!!!+@@@@+",
"+@@@@@@@@@+>>>>>>>>>>>>+~~~~~~~~~~~~~~~~~~~~~~~~~~~~~~~~~~+@@@@+",
"+@@@@@@@@@+>>>>>>>>>>>>+{{{{{{{{{{{{{{{{{{{{{{{{{{{{{{{{{{+@@@@+",
"+@@@@@@@@@+>>>>>>>>>>>>+]]]]]]]]]]]]]]]]]]]]]]]]]]]]]]]]]]+@@@@+",
"+@@@@@@@@@+>>>>>>>>>>>>++++++++++++^^^^^^^^^^^^^^^^^^^^^^^+@@@@+",
"+@@@@@@@@@+>>>>>>>>>>>>+//////////+(((((((((((((((((((((((+@@@@+",
"+@@@@@@@@@+>>>>>>>>>>>>+//////////+_______________________+@@@@+",
"+@@@@@@@@@+>>>>>>>>>>>>+//////////+:::::::::::::::::::::::+@@@@+",
"+@@@@@@@@@+>>>>>>>>>>>>+//////////+<<<<<<<<<<<<<<<<<<<<<<<+@@@@+",
"+@@@@@@@@@+>>>>>>>>>>>>+//////////+[[[[[[[[[[[[[[[[[[[[[[[+@@@@+",
"+@@@@@@@@@+>>>>>>>>>>>>+//////////+}}}}}}}}}}}}}}}}}}}}}}}+@@@@+",
"+@@@@@@@@@+>>>>>>>>>>>>+//////////+++++++++++++||1|||22||1+@@@@+",
"+@@@@@@@@@+>>>>>>>>>>>>+//////////+33333333333+44444444444+@@@@+",
"+@@@@@@@@@+>>>>>>>>>>>>+//////////+33333333333+||||||52||5+@@@@+",
"+@@@@@@@@@+>>>>>>>>>>>>+//////////+33333333333+|6666666666+@@@@+",
"+@@@@@@@@@+>>>>>>>>>>>>+//////////+33333333333+77777777777+@@@@+",
"+@@@@@@@@@+>>>>>>>>>>>>+//////////+33333333333+|11|||2|212+@@@@+",
"+@@@@@@@@@+>>>>>>>>>>>>+//////////+33333333333+++++++++||8+@@@@+",
"+@@@@@@@@@+>>>>>>>>>>>>+//////////+33333333333+9999999+000+@@@@+",
"+@@@@@@@@@+>>>>>>>>>>>>+//////////+33333333333+9999999+005+@@@@+",
"+@@@@@@@@@+>>>>>>>>>>>>+//////////+33333333333+9999999+|0|+@@@@+",
"+@@@@@@@@@+>>>>>>>>>>>>+//////////+33333333333+9999999+|0|+@@@@+",
"+@@@@@@@@@+>>>>>>>>>>>>+//////////+33333333333+9999999+|00+@@@@+",
"+@@@@@@@@@+++++++++++++++++++++++++++++++++++++++++++++++++@@@@+",
"+@@@@@@@@@@@@@@@@@@@@@@@@@@@@@@@@@@@@@@@@@@@@@@@@@@@@@@@@@@@@@@+",
"+@@@@@@@@@@@@@@@@@@@@@@@@@@@@@@@@@@@@@@@@@@@@@@@@@@@@@@@@@@@@@@+",
"+@@@@@@@@@@@@@@@@@@@@@@@@@@@@@@@@@@@@@@@@@@@@@@@@@@@@@@@@@@@@@@+",
"+@@@@@@@@@@@@@@@@@@@@@@@@@@@@@@@@@@@@@@@@@@@@@@@@@@@@@@@@@@@@@@+",
"+@@@@@@@@@@@@@@@@@@@@@@@@@@@@@@@@@@@@@@@@@@@@@@@@@@@@@@@@@@@@@@+",
"+@@@@@@@@@@@@@@@@@@@@@@@@@@@@@@@@@@@@@@@@@@@@@@@@@@@@@@@@@@@@@@+",
"+@@@@@@@@@@@@@@@@@@@@@@@@@@@@@@@@@@@@@@@@@@@@@@@@@@@@@@@@@@@@@@+",
"++++++++++++++++++++++++++++++++++++++++++++++++++++++++++++++++",
"         .                                             ....     ",
"        ...                                                     ",
"                                                                ",
"                                                  ..            ",
"                                                 ....           ",
"                                                                ",
"                                                                "};
