/* XPM */
static char * exit_player_left_xpm[] = {
"64 64 59 1",
" 	c #D7C6A2",
".	c #7F7F7F",
"+	c #62784A",
"@	c #4E5332",
"#	c #161616",
"$	c #171A0F",
"%	c #8E8E8E",
"&	c #243117",
"*	c #606060",
"=	c #5C5C5C",
"-	c #585858",
";	c #545454",
">	c #9F8965",
",	c #505050",
"'	c #E6DAAD",
")	c #4C4C4C",
"!	c #FDFFD6",
"~	c #796E67",
"{	c #3D3734",
"]	c #484848",
"^	c #302D21",
"/	c #444444",
"(	c #797979",
"_	c #404040",
":	c #364922",
"<	c #84AE56",
"[	c #3C3C3C",
"}	c #383838",
"|	c #343434",
"1	c #303030",
"2	c #2C2C2C",
"3	c #282828",
"4	c #242424",
"5	c #202020",
"6	c #1C1C1C",
"7	c #626262",
"8	c #181818",
"9	c #6B3840",
"0	c #3A1F1D",
"a	c #141414",
"b	c #B34D5C",
"c	c #8D4953",
"d	c #101010",
"e	c #0C0C0C",
"f	c #000000",
"g	c #010101",
"h	c #020202",
"i	c #4E4E4E",
"j	c #0B0B0B",
"k	c #BD7247",
"l	c #030303",
"m	c #CD9757",
"n	c #80592D",
"o	c #0A0A0A",
"p	c #AB7B44",
"q	c #090909",
"r	c #050505",
"s	c #3A3A3A",
"t	c #040404",
"                                                                ",
"                                                                ",
"                                                                ",
"                                                                ",
"                                                                ",
"        ...                           ..                        ",
"       .....                         ..+@+++++                  ",
"#####################################+@++@@@@$##################",
"#%%%%%%%%%%%%%%%%%%%%%%%%%%%%%%%%%%+@++@@@@@@$%%%%%%%%%%%%%%%%%#",
"#%%%%%%%%%%%%%%%%%%%%%%%%%%%%%%%%+@++@@@@@@@&$%%%%%%%%%%%%%%%%%#",
"#%%%%%%%%%%%%%%%%%%%%%%%%%%%%%%+@++@@@@@@@@&$%%%%%%%%%%%%%%%%%%#",
"#%%%%%%%%%%%%%%%%%%%%%%%%%%++++++@@@@@@@@@&&$%%%%%%%%%%%%%%%%%%#",
"#%%%%%%%%%%%%%%%%%%%%%%%%+++++++&&@@@@@@&&&$%%%%%%%%%%%%%%%%%%%#",
"#%%%%%%%%%#############+++@@@@@@@@&@@@&&&&&$###############%%%%#",
"#%%%%%%%%%#***********++@@@@@@@@@@@@&&&&&&$***************#%%%%#",
"#%%%%%%%%%#==========++@@@@@@@@@@@@@@&&&&&$===============#%%%%#",
"#%%%%%%%%%#----------+++@@@@@@@@@@@@@@&&&&$---------------#%%%%#",
"#%%%%%%%%%#;;;;;;;;;;;>>++@@@@@@@@@@@@@@&&$;;;;;;;;;;;;;;;#%%%%#",
"#%%%%%%%%%#,,,,,,,,,,>''>>++@@@@@@@@@@@@@$,,,,,,,,,,,,,,,,#%%%%#",
"#%%%%%%%%%#))))))))))>!''~~{+@@@@@@@@@@@@@$)))))))))))))))#%%%%#",
"#%%%%%%%%%#]]]]]]]]]]'^^>'~~+@@@@@@@@@@@@@$]]]]]]]]]]]]]]]#%%%%#",
"#%%%%%%%%%###########'''''~~{+@@@@@@@@@@@@&$//////////////#%%%%#",
"#%%%%%%%%%#((((((((((''>!~~~~+@@@@@@@@@@@@&$______________#%%%%#",
"#%%%%%%%%%#(((((((((('':<^^''+&@@@@@@@@@@@@&$[[[[[[[[[[[[[#%%%%#",
"#%%%%%%%%%#(((((((((('':<<!''>+&@@@@@@@@@@@@@$}}}}}}}}}}}}#%%%%#",
"#%%%%%%%%%#(((((((((''':<!!!''>+&@@@@@@@@@@@&&$|||||||||||#%%%%#",
"#%%%%%%%%%#((((((((^^!''!!''''>>+&@@@@@@@@@&&&&$1111111111#%%%%#",
"#%%%%%%%%%#((((((((>'''''''''>>$&@@@@@@@@@&&&&$22222222222#%%%%#",
"#%%%%%%%%%#((((((((>''''''''>>$&@@@@@@@@&&&&&$333333333333#%%%%#",
"#%%%%%%%%%#(((((((((>''''''>>$&@@@@@@@@&&&&$$4444444444444#%%%%#",
"#%%%%%%%%%#((((((((((>''''>>$&@@@@@@&&&&&$$555555555555555#%%%%#",
"#%%%%%%%%%#((((((((((((>>>$$&&&&&&&&&&&$$66666666666666666#%%%%#",
"#%%%%%%%%%#((((((((((((#7$$$$$$$$$$$$$$8888888888888888888#%%%%#",
"#%%%%%%%%%#((((((((((((#7990$&&&&&&$aaaaaaaaaaaaaaaaaaaaaa#%%%%#",
"#%%%%%%%%%#((((((((((((#bc90$&&&&&&&$ddddddddddddddddddddd#%%%%#",
"#%%%%%%%%%#((((((((((((bc90^$&&&&&&&$eeeeeeeeeeeeeeeeeeeee#%%%%#",
"#%%%%%%%%%#((((((((((((c90^^$&&@&&&&&$#########ffgfffhhffg#%%%%#",
"#%%%%%%%%%#((((((((((((00^^^$&@@&@&&&$iiiiiiii#jjjjjjjjjjj#%%%%#",
"#%%%%%%%%%#((((((((((((#>'k^$&@@&@@@&&$iiiiiii#fffffflhffl#%%%%#",
"#%%%%%%%%%#((((((((((((#>mkn$&@@@&@@&@$iiiiiii#foooooooooo#%%%%#",
"#%%%%%%%%%#((((((((((((#>!pk^$@@@&@@@@@$iiiiii#qqqqqqqqqqq#%%%%#",
"#%%%%%%%%%#((((((((((((#!!mm^$@@@@@@@@@$iiiiii#fggfffhfhgh#%%%%#",
"#%%%%%%%%%#((((((((((((!!''k^$@@@&@@@@@@$iiiii#########ffr#%%%%#",
"#%%%%%%%%%#((((((((((((!''>^^$@@@@@@@@@@$iiiii#sssssss#ttt#%%%%#",
"#%%%%%%%%%#(((((((((((!!'>>^^$@@@@@@@@@@@$iiii#sssssss#ttl#%%%%#",
"#%%%%%%%%%#(((((((((((>''>^'^$@@@@@@@@@@@@$iii#sssssss#ftf#%%%%#",
"#%%%%%%%%%#(((((((((((>'>^''>$@@@@@@@@@@@@@$ii#sssssss#ftf#%%%%#",
"#%%%%%%%%%#(((((((((((^'^>''>$@@@@@@@@@@@@@@$i#ssss!!!!ftt#%%%%#",
"#%%%%%%%%%#############^^>''>$@@@@@@@@@@@@@@@$####!''''!###%%%%#",
"#%%%%%%%%%%%%%%%%%%%%%%%%>''>$@@@@@@@@@@@&@@@@$%%!''''''%%%%%%%#",
"#%%%%%%%%%%%%%%%%%%%%%%%%>''>$@@@&@@&@@@@@@@@@@$%''''''%%%%%%%%#",
"#%%%%%%%%%%%%%%%%%%%%%%%%>''$@@@@@@@@@@@@@&@@@@$'>>>%%%%%%%%%%%#",
"#%%%%%%%%%%%%%%%%%%%%%%%%>~'$@@@@&@@@&@@@@@&@@&$^^^%%%%%%%%%%%%#",
"#%%%%%%%%%%%%%%%%%%%%%%%%>~'$@@@@&@@@&@@@@@@&&$^^^%%%%%%%%%%%%%#",
"#%%%%%%%%%%%%%%%%%%%%%%%%{~'$@@@@@&@@@&@@@@&&$%%%%%%%%%%%%%%%%%#",
"#%%%%%%%%%%%%%%%%%%%%%%%%%~{&@@@@@&@@&&&&&&$$%%%%%%%%%%%%%%%%%%#",
"##########################{{&&@@@&&&&&$$$$$#####################",
"         .              !!''&&&&&&$$$$                 ....     ",
"        ...            !>>>>$$$$$$                              ",
"                                                                ",
"                                                  ..            ",
"                                                 ....           ",
"                                                                ",
"                                                                "};
