/* XPM */
static char * exit_player_front_xpm[] = {
"64 64 62 1",
" 	c #D7C6A2",
".	c #62784A",
"+	c #171A0F",
"@	c #7F7F7F",
"#	c #4E5332",
"$	c #161616",
"%	c #8E8E8E",
"&	c #243117",
"*	c #606060",
"=	c #5C5C5C",
"-	c #585858",
";	c #545454",
">	c #505050",
",	c #3D3734",
"'	c #9F8965",
")	c #4C4C4C",
"!	c #484848",
"~	c #BD7247",
"{	c #E6DAAD",
"]	c #302D21",
"^	c #444444",
"/	c #797979",
"(	c #80592D",
"_	c #AB7B44",
":	c #CD9757",
"<	c #796E67",
"[	c #404040",
"}	c #3C3C3C",
"|	c #84AE56",
"1	c #364922",
"2	c #FDFFD6",
"3	c #383838",
"4	c #343434",
"5	c #E2B179",
"6	c #303030",
"7	c #2C2C2C",
"8	c #282828",
"9	c #242424",
"0	c #202020",
"a	c #626262",
"b	c #1C1C1C",
"c	c #3A1F1D",
"d	c #6B3840",
"e	c #181818",
"f	c #B34D5C",
"g	c #8D4953",
"h	c #141414",
"i	c #101010",
"j	c #0C0C0C",
"k	c #000000",
"l	c #020202",
"m	c #010101",
"n	c #4E4E4E",
"o	c #0B0B0B",
"p	c #030303",
"q	c #0A0A0A",
"r	c #090909",
"s	c #050505",
"t	c #3A3A3A",
"u	c #040404",
"v	c #A47556",
"w	c #9C8C81",
"                                                                ",
"                                                                ",
"                                                                ",
"                   .                          .                 ",
"                  +..                        ..+                ",
"        @@@       +#..                @@    ..#+                ",
"       @@@@@     +###..              @@@@  ..###+               ",
"$$$$$$$$$$$$$$$$$+###...$$$$$$$$$$$$$$$$$$...###+$$$$$$$$$$$$$$$",
"$%%%%%%%%%%%%%%%%+####...%%%%%%%%%%%%%%%%...####+%%%%%%%%%%%%%%$",
"$%%%%%%%%%%%%%%%+&#####...%%%%%%%%%%%%%%...#####&+%%%%%%%%%%%%%$",
"$%%%%%%%%%%%%%%%+&#####....................#####&+%%%%%%%%%%%%%$",
"$%%%%%%%%%%%%%%%+&######..................######&+%%%%%%%%%%%%%$",
"$%%%%%%%%%%%%%%%+&######..##############..######&+%%%%%%%%%%%%%$",
"$%%%%%%%%%$$$$$$+&###&#.##################.#####&+$$$$$$$$$%%%%$",
"$%%%%%%%%%$*****+&&#&.######################&###&+********$%%%%$",
"$%%%%%%%%%$=====+&&&.#######################.&#&&+========$%%%%$",
"$%%%%%%%%%$-----+&&&.########################.&&&+--------$%%%%$",
"$%%%%%%%%%$;;;;;;+&.########..........#######.&&+;;;;;;;;;$%%%%$",
"$%%%%%%%%%$>>>>>>++#######..,,,,''',,,..######.++>>>>>>>>>$%%%%$",
"$%%%%%%%%%$))))))+######..''',,''''',,,,..######+)))))))))$%%%%$",
"$%%%%%%%%%$!!!!!+######.~~''''''''''',,,,,.######+!!!!!!!!$%%%%$",
"$%%%%%%%%%$$$$$$+#####.~~'''{]]{{{{]]',,,,,.#####+^^^^^^^^$%%%%$",
"$%%%%%%%%%$////+######.((__:{{{{{{{{{{<<,,,.######+[[[[[[[$%%%%$",
"$%%%%%%%%%$///+#######.~~::_:{{{{{{{{{{<<,'.#######+}}}}}}$%%%%$",
"$%%%%%%%%%$//+#######~~::]]|12{{{{{{21|]]{{'+#######+33333$%%%%$",
"$%%%%%%%%%$/+&&#####+(____||1|2{{{{2|1||22{{'+#####&&+4444$%%%%$",
"$%%%%%%%%%$//++&&###+~::::5|1||{{{{||1|2{{{{'+###&&++66666$%%%%$",
"$%%%%%%%%%$////++&&&&+(___:5{{{{22{{{{{{{{{'+&&&&++7777777$%%%%$",
"$%%%%%%%%%$//////++&&&+~::{{{{{{]]{{{{{{{{'+&&&++888888888$%%%%$",
"$%%%%%%%%%$////////+++++'{{{{{{{{{{{{{{{{'+++++99999999999$%%%%$",
"$%%%%%%%%%$////////////$+++{{{{{{{{{{{{+++0000000000000000$%%%%$",
"$%%%%%%%%%$////////////$aaa++++++++++++bbbbbbbbbbbbbbbbbbb$%%%%$",
"$%%%%%%%%%$////////////$aa+&&cddccddc&&+eeeeeeeeeeeeeeeeee$%%%%$",
"$%%%%%%%%%$////////////$a+&&cfgdccdgfc&&+hhhhhhh{2hhhhhhhh$%%%%$",
"$%%%%%%%%%$////////////$+&&cffgc''cgffc&&+iiiii{{{2iiiiiii$%%%%$",
"$%%%%%%%%%$////////////+&&&cfgdc''cdgfc&&&+jjjjj{{2jjjjjjj$%%%%$",
"$%%%%%%%%%$////////////+&&&cddc''''cddc&&&+$$$$k'{{kkllkkm$%%%%$",
"$%%%%%%%%%$///////////+###&&cc''{{'~cc&&###+nn$o'{{ooooooo$%%%%$",
"$%%%%%%%%%$///////////+####&+''{{{{~~+&####+nn$k'{'kkplkkp$%%%%$",
"$%%%%%%%%%$//////////+#####+''{{{{{:~(+#####+n$]{{qqqqqqqq$%%%%$",
"$%%%%%%%%%$//////////+####+''{{{{{::(~~+####+]]'']rrrrrrrr$%%%%$",
"$%%%%%%%%%$/////////+#####+'{{{{{{__::(+#####+'']mkkklklml$%%%%$",
"$%%%%%%%%%$/////////+#####+{{{{{{{::__:+#####+']$$$$$$$kks$%%%%$",
"$%%%%%%%%%$/////////+####+{{'{{{{{{{:~::+####+]ttttttt$uuu$%%%%$",
"$%%%%%%%%%$////////+&####+{{'{{2''2{{'{{+####&+ttttttt$uup$%%%%$",
"$%%%%%%%%%$////////+&####+{{']{2''2{]'{{+####&+ttttttt$kuk$%%%%$",
"$%%%%%%%%%$///////+&&####+{{{]22]]22]{{{+####&&+tttttt$kuk$%%%%$",
"$%%%%%%%%%$//////+&&#####+:{{']2]]2]'{{{+#####&&+ttttt$kuu$%%%%$",
"$%%%%%%%%%$$$$$$+&######+(__{{']]]]'{{{{'+#####&&+$$$$$$$$$%%%%$",
"$%%%%%%%%%%%%%%+#####&##+~:{{{{''''{{{{{'+##&####&+%%%%%%%%%%%%$",
"$%%%%%%%%%%%%++#########+v{{{{{{{{{{{{{{'+#########++%%%%%%%%%%$",
"$%%%%%%%%%%++####&######+'{{{{{{{{{{{{{{'+######&####++%%%%%%%%$",
"$%%%%%%%%%+#########&###+'{{{{{{{{{<<{{{'+###&#########+%%%%%%%$",
"$%%%%%%%%+#####&########+'{{{{{{{<<<<{{{'&########&#####+%%%%%%$",
"$%%%%%%%%%++##&####&####&+{{{{{22ww<<{{{+&####&####&##++%%%%%%%$",
"$%%%%%%%%%%%++&&##&&####&+{{{{{'',,<<<{{+&####&&##&&++%%%%%%%%%$",
"$$$$$$$$$$$$$$++&&&&&&&&&+'{{{']]]],<<{'+&&&&&&&&&++$$$$$$$$$$$$",
"         @      +++&&&&&&+''{{]    ]<<''+&&&&&&+++     @@@@     ",
"        @@@        ++++++ ]''']    ],,'] ++++++                 ",
"                          ]222]    ]222]                        ",
"                           ]]]      ]]]           @@            ",
"                                                 @@@@           ",
"                                                                ",
"                                                                "};
