/* XPM */
static char * exit_player_back_xpm[] = {
"64 64 48 1",
" 	c #D7C6A2",
".	c #62784A",
"+	c #171A0F",
"@	c #7F7F7F",
"#	c #4E5332",
"$	c #161616",
"%	c #8E8E8E",
"&	c #243117",
"*	c #606060",
"=	c #5C5C5C",
"-	c #585858",
";	c #545454",
">	c #505050",
",	c #4C4C4C",
"'	c #484848",
")	c #444444",
"!	c #797979",
"~	c #404040",
"{	c #3C3C3C",
"]	c #383838",
"^	c #343434",
"/	c #303030",
"(	c #2C2C2C",
"_	c #282828",
":	c #242424",
"<	c #202020",
"[	c #626262",
"}	c #1C1C1C",
"|	c #8D4953",
"1	c #181818",
"2	c #141414",
"3	c #101010",
"4	c #0C0C0C",
"5	c #000000",
"6	c #010101",
"7	c #020202",
"8	c #4E4E4E",
"9	c #0B0B0B",
"0	c #030303",
"a	c #0A0A0A",
"b	c #090909",
"c	c #FDFFD6",
"d	c #E6DAAD",
"e	c #050505",
"f	c #3A3A3A",
"g	c #040404",
"h	c #9F8965",
"i	c #302D21",
"                                                                ",
"                                                                ",
"                                                                ",
"                   .                          .                 ",
"                  +..                        ..+                ",
"        @@@       +#..                @@    ..#+                ",
"       @@@@@     +###..              @@@@  ..###+               ",
"$$$$$$$$$$$$$$$$$+###...$$$$$$$$$$$$$$$$$$...###+$$$$$$$$$$$$$$$",
"$%%%%%%%%%%%%%%%%+####...%%%%%%%%%%%%%%%%...####+%%%%%%%%%%%%%%$",
"$%%%%%%%%%%%%%%%+&#####...%%%%%%%%%%%%%%...#####&+%%%%%%%%%%%%%$",
"$%%%%%%%%%%%%%%%+&######..................######&+%%%%%%%%%%%%%$",
"$%%%%%%%%%%%%%%%+&########..............########&+%%%%%%%%%%%%%$",
"$%%%%%%%%%%%%%%%+&##############################&+%%%%%%%%%%%%%$",
"$%%%%%%%%%$$$$$$+&##############################&+$$$$$$$$$%%%%$",
"$%%%%%%%%%$*****+&&###&&###################&&###&+********$%%%%$",
"$%%%%%%%%%$=====+&&&&&&#####################&&&&&+========$%%%%$",
"$%%%%%%%%%$-----+&&&&########################&&&&+--------$%%%%$",
"$%%%%%%%%%$;;;;;;+&&##########################&&+;;;;;;;;;$%%%%$",
"$%%%%%%%%%$>>>>>>++############################&&>>>>>>>>>$%%%%$",
"$%%%%%%%%%$,,,,,,+##############################+,,,,,,,,,$%%%%$",
"$%%%%%%%%%$'''''+################################+''''''''$%%%%$",
"$%%%%%%%%%$$$$$$+################################+))))))))$%%%%$",
"$%%%%%%%%%$!!!!+&#################################+~~~~~~~$%%%%$",
"$%%%%%%%%%$!!!+&&&##############################&&&+{{{{{{$%%%%$",
"$%%%%%%%%%$!!+&&&&&###########################&&&&&&+]]]]]$%%%%$",
"$%%%%%%%%%$!+&&&&&&&&######################&&&&&&&&&&+^^^^$%%%%$",
"$%%%%%%%%%$!!++&&&&&&&&&&##############&&&&&&&&&&&&++/////$%%%%$",
"$%%%%%%%%%$!!!!++&&&&&&&&&&&&&&&&&&&&&&&&&&&&&&&&++((((((($%%%%$",
"$%%%%%%%%%$!!!!!!++&&&&&&&&&&&&&&&&&&&&&&&&&&&&++_________$%%%%$",
"$%%%%%%%%%$!!!!!!!!+++++&&&&&&&&&&&&&&&&&&+++++:::::::::::$%%%%$",
"$%%%%%%%%%$!!!!!!!!!!!!$+++&&&&&&&&&&&&+++<<<<<<<<<<<<<<<<$%%%%$",
"$%%%%%%%%%$!!!!!!!!!!!!$[[[++++++++++++}}}}}}}}}}}}}}}}}}}$%%%%$",
"$%%%%%%%%%$!!!!!!!!!!!!$[[+&||||||||||&+111111111111111111$%%%%$",
"$%%%%%%%%%$!!!!!!!!!!!!$[+&&&&||||||&&&&+22222222222222222$%%%%$",
"$%%%%%%%%%$!!!!!!!!!!!!$+&&&&&&&&&&&&&&&&+3333333333333333$%%%%$",
"$%%%%%%%%%$!!!!!!!!!!!!+&&&&&&&&&&&&&&&&&&+444444444444444$%%%%$",
"$%%%%%%%%%$!!!!!!!!!!!!+&&&&&&&&&&&&&&&&&&+$$$$55655577556$%%%%$",
"$%%%%%%%%%$!!!!!!!!!!!+####&&&&&&&&&&&&&###+88$99999999999$%%%%$",
"$%%%%%%%%%$!!!!!!!!!!!+#######&&&&&&#######+88$55555507550$%%%%$",
"$%%%%%%%%%$!!!!!!!!!!+######################+8$5aaaaaaaaaa$%%%%$",
"$%%%%%%%%%$!!!!!!!!!!+######################+8$bbbbbbbbbbb$%%%%$",
"$%%%%%%%%%$!!!!!!!!!+#################cc#####+$56655575767$%%%%$",
"$%%%%%%%%%$!!!!!!!!!+################cddc####+$$$$$$$$$55e$%%%%$",
"$%%%%%%%%%$!!!!!!!!!+################dddd####+$fffffff$ggg$%%%%$",
"$%%%%%%%%%$!!!!!!!!+&################dddh####&+fffffff$gg0$%%%%$",
"$%%%%%%%%%$!!!!!!!!+&################ddd#####&+fffffff$5g5$%%%%$",
"$%%%%%%%%%$!!!!!!!+&&################ddd#####&&+ffffff$5g5$%%%%$",
"$%%%%%%%%%$!!!!!!+&&#################ddd######&&+fffff$5gg$%%%%$",
"$%%%%%%%%%$$$$$$+&###################ddd#######&&+$$$$$$$$$%%%%$",
"$%%%%%%%%%%%%%%+#####################ddd##&######&+%%%%%%%%%%%%$",
"$%%%%%%%%%%%%++############&#########hdd###########++%%%%%%%%%%$",
"$%%%%%%%%%%++#######################hhhh#############++%%%%%%%%$",
"$%%%%%%%%%+###########&###&######&&&hhhh####&##########+%%%%%%%$",
"$%%%%%%%%+####&######&##########&++hhhh#########&#######+%%%%%%$",
"$%%%%%%%%%++&&###########&&####&+ihhhh&&#####&###&####++%%%%%%%$",
"$%%%%%%%%%%%++&&###&####&&##&&&+iihhhi&+&&####&###&&++%%%%%%%%%$",
"$$$$$$$$$$$$$$++&&&&&&&&&&&&+++ihhhhhhi++&&&&&&&&&++$$$$$$$$$$$$",
"         @      +++&&&&&&+++iiihhhhhhiii+#&&&&&+++     @@@@     ",
"        @@@        ++++++iiiiiiiiiiiiiiii++++++                 ",
"                         ihhhi     ihhhi                        ",
"                          iii       iii           @@            ",
"                                                 @@@@           ",
"                                                                ",
"                                                                "};
