/* XPM */
static char * exit_player_right_xpm[] = {
"64 64 59 1",
" 	c #D7C6A2",
".	c #7F7F7F",
"+	c #62784A",
"@	c #4E5332",
"#	c #161616",
"$	c #171A0F",
"%	c #8E8E8E",
"&	c #243117",
"*	c #606060",
"=	c #5C5C5C",
"-	c #585858",
";	c #545454",
">	c #9F8965",
",	c #505050",
"'	c #E6DAAD",
")	c #4C4C4C",
"!	c #FDFFD6",
"~	c #484848",
"{	c #302D21",
"]	c #BD7247",
"^	c #CD9757",
"/	c #444444",
"(	c #797979",
"_	c #AB7B44",
":	c #404040",
"<	c #84AE56",
"[	c #364922",
"}	c #3C3C3C",
"|	c #E2B179",
"1	c #383838",
"2	c #80592D",
"3	c #BC8D57",
"4	c #343434",
"5	c #303030",
"6	c #2C2C2C",
"7	c #282828",
"8	c #242424",
"9	c #202020",
"0	c #1C1C1C",
"a	c #626262",
"b	c #181818",
"c	c #3A1F1D",
"d	c #6B3840",
"e	c #141414",
"f	c #8D4953",
"g	c #B34D5C",
"h	c #101010",
"i	c #0C0C0C",
"j	c #000000",
"k	c #010101",
"l	c #020202",
"m	c #4E4E4E",
"n	c #0B0B0B",
"o	c #030303",
"p	c #0A0A0A",
"q	c #090909",
"r	c #050505",
"s	c #3A3A3A",
"t	c #040404",
"                                                                ",
"                                                                ",
"                                                                ",
"                                                                ",
"                                                                ",
"        ...                           ..                        ",
"       .....      +++++@+            ....                       ",
"##################$@@@@++@+#####################################",
"#%%%%%%%%%%%%%%%%%$@@@@@@++@+%%%%%%%%%%%%%%%%%%%%%%%%%%%%%%%%%%#",
"#%%%%%%%%%%%%%%%%%$&@@@@@@@++@+%%%%%%%%%%%%%%%%%%%%%%%%%%%%%%%%#",
"#%%%%%%%%%%%%%%%%%%$&@@@@@@@@++@+%%%%%%%%%%%%%%%%%%%%%%%%%%%%%%#",
"#%%%%%%%%%%%%%%%%%%$&&@@@@@@@@@++++++%%%%%%%%%%%%%%%%%%%%%%%%%%#",
"#%%%%%%%%%%%%%%%%%%%$&&&@@@@@@&&+++++++%%%%%%%%%%%%%%%%%%%%%%%%#",
"#%%%%%%%%%##########$&&&&&@@@&@@@@@@@@+++##################%%%%#",
"#%%%%%%%%%#**********$&&&&&&@@@@@@@@@@@@++****************#%%%%#",
"#%%%%%%%%%#==========$&&&&&@@@@@@@@@@@@@@++===============#%%%%#",
"#%%%%%%%%%#----------$&&&&@@@@@@@@@@@@@@+++---------------#%%%%#",
"#%%%%%%%%%#;;;;;;;;;;$&&@@@@@@@@@@@@@@++>>;;;;;;;;;;;;;;;;#%%%%#",
"#%%%%%%%%%#,,,,,,,,,,,$@@@@@@@@@@@@@++>>''>,,,,,,,,,,,,,,,#%%%%#",
"#%%%%%%%%%#))))))))))$@@@@@@@@@@@@@+>''''!>)))))))))))))))#%%%%#",
"#%%%%%%%%%#~~~~~~~~~~$@@@@@@@@@@@@@+'''>{{'~~~~~~~~~~~~~~~#%%%%#",
"#%%%%%%%%%##########$&@@@@@@@@@@@@+]^''''''///////////////#%%%%#",
"#%%%%%%%%%#((((((((($&@@@@@@@@@@@@+_^^'!>'':::::::::::::::#%%%%#",
"#%%%%%%%%%#(((((((($&@@@@@@@@@@@@&+^_{{<[''}}}}}}}}}}}}}}}#%%%%#",
"#%%%%%%%%%#((((((($@@@@@@@@@@@@@&+]^^|<<[''111111111111111#%%%%#",
"#%%%%%%%%%#(((((($&&@@@@@@@@@@@&+2__333<['''44444444444444#%%%%#",
"#%%%%%%%%%#((((($&&&&@@@@@@@@@&+]]^^^^||''!{{5555555555555#%%%%#",
"#%%%%%%%%%#(((((($&&&&@@@@@@@@@&$22__'''''''>6666666666666#%%%%#",
"#%%%%%%%%%#((((((($&&&&&@@@@@@@@&$]]''''''''>7777777777777#%%%%#",
"#%%%%%%%%%#(((((((($$&&&&@@@@@@@@&$>>''''''>88888888888888#%%%%#",
"#%%%%%%%%%#(((((((((($$&&&&&@@@@@@&$>>''''>999999999999999#%%%%#",
"#%%%%%%%%%#(((((((((((($$&&&&&&&&&&&$$>>>00000000000000000#%%%%#",
"#%%%%%%%%%#((((((((((((#a$$$$$$$$$$$$$$bbbbbbbbbbbbbbbbbbb#%%%%#",
"#%%%%%%%%%#((((((((((((#aaaa$&&&&&&$cddeeeeeeeeeeeeeeeeeee#%%%%#",
"#%%%%%%%%%#((((((((((((#aaa$&&&&&&&$cdfghhhhhhhhhhhhhhhhhh#%%%%#",
"#%%%%%%%%%#((((((((((((#aaa$&&&&&&&${cdfgiiiiiiiiiiiiiiiii#%%%%#",
"#%%%%%%%%%#((((((((((((#aa$&&&&&@&&${{cdf######jjkjjjlljjk#%%%%#",
"#%%%%%%%%%#((((((((((((#aa$&&&@&@@&${{{ccmmmmm#nnnnnnnnnnn#%%%%#",
"#%%%%%%%%%#((((((((((((#a$&&@@@&@@&${>'>mmmmmm#jjjjjjoljjo#%%%%#",
"#%%%%%%%%%#((((((((((((#a$@&@@&@@@&$>>'>mmmmmm#jpppppppppp#%%%%#",
"#%%%%%%%%%#((((((((((((#$@@@@@&@@@${>'!>mmmmmm#qqqqqqqqqqq#%%%%#",
"#%%%%%%%%%#((((((((((((#$@@@@@@@@@${''!!mmmmmm#jkkjjjljlkl#%%%%#",
"#%%%%%%%%%#(((((((((((($@@@@@@&@@@${>''!!mmmmm#########jjr#%%%%#",
"#%%%%%%%%%#(((((((((((($@@@@@@@@@@${{>''!mmmmm#sssssss#ttt#%%%%#",
"#%%%%%%%%%#((((((((((($@@@@@@@@@@@${{>>'!!mmmm#sssssss#tto#%%%%#",
"#%%%%%%%%%#(((((((((($@@@@@@@@@@@@${'{>''>mmmm#sssssss#jtj#%%%%#",
"#%%%%%%%%%#((((((((($@@@@@@@@@@@@@$>''{>'>mmmm#sssssss#jtj#%%%%#",
"#%%%%%%%%!!!!(((((($@@@@@@@@@@@@@@$>''>{'{mmmm#sssssss#jtt#%%%%#",
"#%%%%%%%!''''!####$@@@@@@@@@@@@@@@$]^'>{{##################%%%%#",
"#%%%%%%%''''''!%%$@@@@&@@@@@@@@@@@$2__>%%%%%%%%%%%%%%%%%%%%%%%%#",
"#%%%%%%%%''''''%$@@@@@@@@@@&@@&@@@$]^'>%%%%%%%%%%%%%%%%%%%%%%%%#",
"#%%%%%%%%%%%>>>'$@@@@&@@@@@@@@@@@@@$''>%%%%%%%%%%%%%%%%%%%%%%%%#",
"#%%%%%%%%%%%%{{{$&@@&@@@@@&@@@&@@@@$''>%%%%%%%%%%%%%%%%%%%%%%%%#",
"#%%%%%%%%%%%%%{{{$&&@@@@@@&@@@&@@@@$''>%%%%%%%%%%%%%%%%%%%%%%%%#",
"#%%%%%%%%%%%%%%%%%$&&@@@@&@@@&@@@@@$''>%%%%%%%%%%%%%%%%%%%%%%%%#",
"#%%%%%%%%%%%%%%%%%%$$&&&&&&@@&@@@@@&>'%%%%%%%%%%%%%%%%%%%%%%%%%#",
"#####################$$$$$&&&&&@@@&&>>##########################",
"         .                $$$$&&&&&&''!!               ....     ",
"        ...                   $$$$$$>>>>!                       ",
"                                                                ",
"                                                  ..            ",
"                                                 ....           ",
"                                                                ",
"                                                                "};
