/* XPM */
static char * exit_player_front_xpm[] = {
"64 64 497 2",
"  	c #D7C6A2",
". 	c #D7C6A3",
"+ 	c #D6C6A3",
"@ 	c #D6C5A4",
"# 	c #D5C5A5",
"$ 	c #D4C4A6",
"% 	c #D6C5A3",
"& 	c #D5C5A4",
"* 	c #D3C4A7",
"= 	c #D2C3A8",
"- 	c #D4C5A6",
"; 	c #62784A",
"> 	c #D2C3A9",
", 	c #D1C3A9",
"' 	c #D1C2AA",
") 	c #D0C2AB",
"! 	c #171A0F",
"~ 	c #CFC2AC",
"{ 	c #CFC1AD",
"] 	c #CEC1AD",
"^ 	c #CEC1AE",
"/ 	c #CDC1AE",
"( 	c #CDC0AE",
"_ 	c #7F7F80",
": 	c #7F7F81",
"< 	c #4E5332",
"[ 	c #CCC0B0",
"} 	c #CBBFB1",
"| 	c #CABFB2",
"1 	c #CABEB2",
"2 	c #CBC0B0",
"3 	c #7A7F91",
"4 	c #7A7F90",
"5 	c #7E7F82",
"6 	c #7E7F83",
"7 	c #C9BEB3",
"8 	c #C8BEB4",
"9 	c #C7BDB5",
"0 	c #C6BDB6",
"a 	c #C5BCB7",
"b 	c #C6BCB7",
"c 	c #C6BCB6",
"d 	c #C7BCB6",
"e 	c #C9BEB4",
"f 	c #777F99",
"g 	c #787F97",
"h 	c #797F95",
"i 	c #797F92",
"j 	c #C5BBB8",
"k 	c #C3BBBA",
"l 	c #C2BABB",
"m 	c #C1BABB",
"n 	c #C0BABC",
"o 	c #C1BABC",
"p 	c #C1B9BC",
"q 	c #C3BABA",
"r 	c #C4BBB9",
"s 	c #CBBFB0",
"t 	c #BEB8BF",
"u 	c #BCB8C0",
"v 	c #BBB8C2",
"w 	c #BAB7C2",
"x 	c #BBB7C2",
"y 	c #BCB7C1",
"z 	c #BCB7C0",
"A 	c #BDB7C0",
"B 	c #BEB7BF",
"C 	c #BFB8BE",
"D 	c #C0B9BD",
"E 	c #C2B9BB",
"F 	c #243117",
"G 	c #B6B5C6",
"H 	c #B1B9CB",
"I 	c #B3B5C8",
"J 	c #B4B4C8",
"K 	c #B4B4C7",
"L 	c #B5B3C7",
"M 	c #B6B3C6",
"N 	c #B7B3C5",
"O 	c #B8B4C4",
"P 	c #B9B5C3",
"Q 	c #BBB6C2",
"R 	c #BEB8BE",
"S 	c #C0B9BC",
"T 	c #CFC1AC",
"U 	c #CDC0AF",
"V 	c #C8BDB4",
"W 	c #C2BABA",
"X 	c #D1C3AA",
"Y 	c #BAB6C2",
"Z 	c #BAB5C2",
"` 	c #B5B3C6",
" .	c #CCBFB0",
"..	c #B0B0CA",
"+.	c #C3BBB9",
"@.	c #BFB8BD",
"#.	c #ABAECF",
"$.	c #A5ACD3",
"%.	c #717FA9",
"&.	c #737EA2",
"*.	c #BCB6C0",
"=.	c #B7B4C5",
"-.	c #B2B1C9",
";.	c #ACAECE",
">.	c #A5ADD3",
",.	c #9BB0DB",
"'.	c #3D3734",
").	c #9F8965",
"!.	c #CBC0B1",
"~.	c #D3C4A8",
"{.	c #CFC2AD",
"].	c #C9BFB3",
"^.	c #B3B2C8",
"/.	c #ACAFCE",
"(.	c #A3B1D5",
"_.	c #A5C0DF",
":.	c #A8CBE6",
"<.	c #CABFB3",
"[.	c #C8BEB5",
"}.	c #BFB9BD",
"|.	c #B0B0CB",
"1.	c #AAADCF",
"2.	c #A1ACD6",
"3.	c #A4C0E2",
"4.	c #BD7247",
"5.	c #A6ABD2",
"6.	c #9DA9D8",
"7.	c #92B3E0",
"8.	c #E6DAAD",
"9.	c #302D21",
"0.	c #B7B5C5",
"a.	c #C6BDB7",
"b.	c #C4BBB8",
"c.	c #B9B6C3",
"d.	c #B4B3C7",
"e.	c #AFB0CC",
"f.	c #A8ADD1",
"g.	c #A1AAD5",
"h.	c #9AA7DA",
"i.	c #80592D",
"j.	c #AB7B44",
"k.	c #CD9757",
"l.	c #796E67",
"m.	c #C7BDB6",
"n.	c #C2BBBB",
"o.	c #BCB9C0",
"p.	c #B6B6C6",
"q.	c #B1B3CA",
"r.	c #ABB0CF",
"s.	c #A4ACD3",
"t.	c #9BACD9",
"u.	c #BDB8C0",
"v.	c #797F93",
"w.	c #778099",
"x.	c #C0BABD",
"y.	c #BAB8C2",
"z.	c #B4B5C7",
"A.	c #AEB2CC",
"B.	c #A8AFD1",
"C.	c #84AE56",
"D.	c #364922",
"E.	c #FDFFD6",
"F.	c #7A7F8F",
"G.	c #797F94",
"H.	c #777F9A",
"I.	c #747FA2",
"J.	c #BFB9BE",
"K.	c #B9B7C4",
"L.	c #B2B4C9",
"M.	c #ADB0CD",
"N.	c #A6ADD2",
"O.	c #C5BCB8",
"P.	c #B8B6C4",
"Q.	c #B2B2C9",
"R.	c #A5ABD3",
"S.	c #9BABD9",
"T.	c #E2B179",
"U.	c #D3C3A7",
"V.	c #BDB7BF",
"W.	c #B8B5C4",
"X.	c #B1B1CA",
"Y.	c #A3AAD4",
"Z.	c #9AA9DA",
"`.	c #91ADE0",
" +	c #88C6E7",
".+	c #AFB3CC",
"++	c #C3BAB9",
"@+	c #D3C3A8",
"#+	c #A9ACD0",
"$+	c #A2A9D5",
"%+	c #99A7DA",
"&+	c #90AAE0",
"*+	c #87B3E5",
"=+	c #82BAE8",
"-+	c #82D5EC",
";+	c #9BB6DD",
">+	c #A2BDDB",
",+	c #A4BCD7",
"'+	c #B5B4C6",
")+	c #AFAFCB",
"!+	c #A8ACD1",
"~+	c #A1A8D6",
"{+	c #99A5DA",
"]+	c #90A4E0",
"^+	c #89A5E4",
"/+	c #82A9E7",
"(+	c #7BB6EB",
"_+	c #79C2EC",
":+	c #9EF0EF",
"<+	c #90A6E0",
"[+	c #94AEDF",
"}+	c #9EC4E3",
"|+	c #D0DEE7",
"1+	c #AACAE0",
"2+	c #AEB8CD",
"3+	c #C1B9BB",
"4+	c #BCB6C1",
"5+	c #AFAFCC",
"6+	c #A0A8D6",
"7+	c #98A4DB",
"8+	c #91A2DF",
"9+	c #89A0E3",
"0+	c #82A2E7",
"a+	c #7CB1EA",
"b+	c #82DDEE",
"c+	c #D3F5EF",
"d+	c #F8F5F0",
"e+	c #75B0ED",
"f+	c #77A8EB",
"g+	c #7CA1E9",
"h+	c #81ABE8",
"i+	c #89A2E3",
"j+	c #91A4DF",
"k+	c #97A8DC",
"l+	c #9ABEE1",
"m+	c #B6CEE2",
"n+	c #A8BFD8",
"o+	c #A8ABD1",
"p+	c #91A1DF",
"q+	c #899FE3",
"r+	c #829FE7",
"s+	c #7CADEA",
"t+	c #7CCBED",
"u+	c #A7EBEF",
"v+	c #C7F5F0",
"w+	c #E3F5F0",
"x+	c #F6F5F0",
"y+	c #79D4EF",
"z+	c #73C5EF",
"A+	c #72B2EE",
"B+	c #77AAED",
"C+	c #789DEB",
"D+	c #7C9CE9",
"E+	c #82A0E7",
"F+	c #88A4E4",
"G+	c #90A5E0",
"H+	c #97A7DC",
"I+	c #9CAED9",
"J+	c #A4B0D4",
"K+	c #A8B6D2",
"L+	c #BBB7C1",
"M+	c #98A5DB",
"N+	c #90A3E0",
"O+	c #89A2E4",
"P+	c #81A6E7",
"Q+	c #7CA9EA",
"R+	c #77B0EC",
"S+	c #75C1EE",
"T+	c #83E4EF",
"U+	c #A1F5F0",
"V+	c #EBF5F0",
"W+	c #3A1F1D",
"X+	c #6B3840",
"Y+	c #76C9EF",
"Z+	c #72ADEE",
"`+	c #7EB3ED",
" @	c #7DA2E9",
".@	c #82A6E7",
"+@	c #88A7E4",
"@@	c #97A7DB",
"#@	c #A0AAD6",
"$@	c #A6AED2",
"%@	c #ACB2CE",
"&@	c #A1A9D6",
"*@	c #98A6DB",
"=@	c #91A5DF",
"-@	c #89A4E3",
";@	c #81AAE8",
">@	c #7CB1EB",
",@	c #78B9EC",
"'@	c #78C3EE",
")@	c #78C8EF",
"!@	c #90F0EF",
"~@	c #CBF5F0",
"{@	c #D8F5F0",
"]@	c #EFF5F0",
"^@	c #B34D5C",
"/@	c #8D4953",
"(@	c #7BC5EF",
"_@	c #75A8ED",
":@	c #78A2EB",
"<@	c #82AAE7",
"[@	c #89A6E4",
"}@	c #A3B3D6",
"|@	c #AFC8DD",
"1@	c #B6B4C6",
"2@	c #B0B1CB",
"3@	c #A9ADD0",
"4@	c #8AA5E3",
"5@	c #82B0E8",
"6@	c #8FD1ED",
"7@	c #AEE2EE",
"8@	c #93D7EE",
"9@	c #8DD9EF",
"0@	c #B5EBEF",
"a@	c #A1F2F0",
"b@	c #A0F1F0",
"c@	c #BFF5F0",
"d@	c #7FBBEE",
"e@	c #7CB7EC",
"f@	c #85B8EB",
"g@	c #8BB5E8",
"h@	c #8BA3E2",
"i@	c #ABB9D2",
"j@	c #B4B5C8",
"k@	c #B0B1CA",
"l@	c #A2AAD4",
"m@	c #9BA7D9",
"n@	c #92A7DF",
"o@	c #89AEE4",
"p@	c #8BC9EB",
"q@	c #CDE8EF",
"r@	c #EBF4EF",
"s@	c #C4ECEF",
"t@	c #9BDCEF",
"u@	c #D0F0EF",
"v@	c #ADF1F0",
"w@	c #97EFF0",
"x@	c #7AA9EB",
"y@	c #8BB6EA",
"z@	c #8FB4E8",
"A@	c #8CA1E2",
"B@	c #94A3DD",
"C@	c #B1B1C9",
"D@	c #B3B1C8",
"E@	c #A2AED5",
"F@	c #9AACDA",
"G@	c #93A8DE",
"H@	c #8EA2E1",
"I@	c #87B8E8",
"J@	c #C1E3EE",
"K@	c #E7F4EF",
"L@	c #C3EFEF",
"M@	c #8FEAEF",
"N@	c #91E8EF",
"O@	c #97F2EF",
"P@	c #BAF4F0",
"Q@	c #7FC7EC",
"R@	c #81A1E7",
"S@	c #88A0E4",
"T@	c #8FA1E0",
"U@	c #97A4DC",
"V@	c #B5B2C7",
"W@	c #AEAFCC",
"X@	c #A0B5D7",
"Y@	c #A7CBE5",
"Z@	c #97B9E3",
"`@	c #8EABE2",
" #	c #88B7E6",
".#	c #8CCFEB",
"+#	c #93DCED",
"@#	c #8BDEEE",
"##	c #79C1ED",
"$#	c #77C4EE",
"%#	c #7FE1EF",
"&#	c #81B2E8",
"*#	c #89A7E4",
"=#	c #BBB6C1",
"-#	c #AEB1CC",
";#	c #A1BADA",
">#	c #BED7E8",
",#	c #A7C5E4",
"'#	c #568DD7",
")#	c #549ADD",
"!#	c #84B0E6",
"~#	c #7FB9E9",
"{#	c #7DCBEC",
"]#	c #78BCEC",
"^#	c #76C2EE",
"/#	c #85EAEF",
"(#	c #82BDE8",
"_#	c #89B1E4",
":#	c #92AADF",
"<#	c #BEB7BE",
"[#	c #AAB0CF",
"}#	c #9AC0DF",
"|#	c #5FA0D7",
"1#	c #5893D6",
"2#	c #5497DA",
"3#	c #519CDE",
"4#	c #82B4E7",
"5#	c #7DB5EA",
"6#	c #79B6EB",
"7#	c #77BCED",
"8#	c #8CB6E3",
"9#	c #94B0DE",
"0#	c #ADB1CD",
"a#	c #A3B3D5",
"b#	c #9DB2D8",
"c#	c #95B4DD",
"d#	c #90B2E0",
"e#	c #8AB1E3",
"f#	c #80B0E8",
"g#	c #7CB2EA",
"h#	c #7BC0EC",
"i#	c #B9B7C3",
"j#	c #7C7F8B",
"k#	c #B0B3CB",
"l#	c #A9B2D0",
"m#	c #A1B3D6",
"n#	c #9AB2DA",
"o#	c #94B1DE",
"p#	c #8FAFE1",
"q#	c #89AFE4",
"r#	c #84AEE6",
"s#	c #80A8E8",
"t#	c #B5B7C6",
"u#	c #BBB9C1",
"v#	c #D5C5A6",
"w#	c #D4C6A6",
"x#	c #ADB3CD",
"y#	c #A6B2D2",
"z#	c #A0B1D7",
"A#	c #99AFDA",
"B#	c #94AEDE",
"C#	c #8DAFE1",
"D#	c #89ABE4",
"E#	c #85A3E5",
"F#	c #B3B6C8",
"G#	c #B9B8C4",
"H#	c #BFBABE",
"I#	c #B7B6C5",
"J#	c #B1B4CA",
"K#	c #AAB3CF",
"L#	c #A5B0D3",
"M#	c #9FAED7",
"N#	c #99ACDA",
"O#	c #93ACDE",
"P#	c #8EA8E1",
"Q#	c #8AA2E3",
"R#	c #A9B5D0",
"S#	c #B0B5CB",
"T#	c #B6B7C6",
"U#	c #C1BBBB",
"V#	c #C5BDB8",
"W#	c #C9BFB4",
"X#	c #B5B5C6",
"Y#	c #AFB4CC",
"Z#	c #AAB1CF",
"`#	c #A5AED3",
" $	c #A0ACD6",
".$	c #96A6DD",
"+$	c #AEB5CC",
"@$	c #B4B6C7",
"#$	c #B9B9C3",
"$$	c #BEBABE",
"%$	c #C3BCBA",
"&$	c #C7BEB5",
"*$	c #CDC1AF",
"=$	c #BDB9BF",
"-$	c #AFB2CB",
";$	c #ABAFCF",
">$	c #9CA7D9",
",$	c #B5B5C7",
"'$	c #BDBAC0",
")$	c #C1BCBC",
"!$	c #C5BEB7",
"~$	c #7A8091",
"{$	c #788096",
"]$	c #76809B",
"^$	c #C1BBBC",
"/$	c #B8B7C4",
"($	c #B5B4C7",
"_$	c #A7ACD1",
":$	c #BDB8BF",
"<$	c #C0BBBD",
"[$	c #C4BDB9",
"}$	c #D2C4A8",
"|$	c #CAC0B2",
"1$	c #C0BBBC",
"2$	c #B1B0CA",
"3$	c #D0C3AB",
"4$	c #CEC2AE",
"5$	c #CCC1B0",
"6$	c #A47556",
"7$	c #9C8C81",
"8$	c #7F7F7F",
"                            . . . + + + + + @ @ @ @ # # # # # # # # # @ @ @ @ + + + + + . . .                                   ",
"                        . . . + + + + @ @ @ # # # $ $ $ $ $ $ $ $ $ $ $ # # # @ @ @ + + + + . . .                               ",
"                    . . . + + % @ & & # # $ $ $ * * * = = = = = = = * * * * $ $ - # & & @ % + % . . .                           ",
"                  . . % + % @ & # # $ ; $ * = = > , ' ' ' ) ) ) ' ' ' , , , = * * $ $ # # @ ; % + . . .                         ",
"              . . . + + + & # # $ $ ! ; ; , ' ) ~ { ] ^ / ( ( ( ^ ] ] { ~ ) ' , = = * $ $ ; ; ! % + + . . .                     ",
"            . . _ : : @ & # $ $ * = ! < ; ; ] ( [ [ } | | | 1 | | } } 2 [ ( 3 4 ) ' > = ; ; < ! & @ % + . . .                   ",
"          . . _ : : 5 6 # $ * = > ! < < < ; ; 1 7 8 9 0 a a b c c d 9 8 e f g h i { ) ; ; < < < ! # @ % + . . .                 ",
"        . . . + + & # # $ * = ' ) ! < < < ; ; ; j k l m n n o p l l q r j c 9 e | s ; ; ; < < < ! # # & % + . . .               ",
"        . . + + & # $ $ = , ) { ( ! < < < < ; ; ; t u v w w x y z A B C D E q j d ; ; ; < < < < ! $ $ # & % + . . .             ",
"      . . + + & # $ * = , ) ] [ ! F < < < < < ; ; ; G H I J K L M N O P Q z R S ; ; ; < < < < < F ! $ $ # & + + . .             ",
"    . . + % & # $ * > ) T ( s 7 ! F < < < < < ; ; ; ; ; ; ; ; ; ; ; ; ; ; ; ; ; ; ; ; < < < < < F ! = $ $ - & % + . .           ",
"  . . + % @ # $ * = ' T U } e c ! F < < < < < < ; ; ; ; ; ; ; ; ; ; ; ; ; ; ; ; ; ; < < < < < < F ! ' = * $ # @ % + . .         ",
"  . . + @ # # $ = ' T U } V a W ! F < < < < < < ; ; < < < < < < < < < < < < < < ; ; < < < < < < F ! T ' = $ # # @ + . .         ",
". . + % & # $ = X ~ U } V j l C ! F < < < F < ; < < < < < < < < < < < < < < < < < < ; < < < < < F ! ( T , * $ # & + + . .       ",
". + % @ # $ * , ) ( } V j l R Y ! F F < F ; < < < < < < < < < < < < < < < < < < < < < < F < < < F ! } ^ ) > * $ # @ % + .       ",
". + @ # $ * = ) ] s e a E t Z ` ! F F F ; < < < < < < < < < < < < < < < < < < < < < < < ; F < F F ! e  .] ) = * # # @ + . .     ",
". % & # $ = ' T [ 7 c W C Y ` ..! F F F ; < < < < < < < < < < < < < < < < < < < < < < < < ; F F F ! c 1 U T ' = $ # # % % .     ",
"+ @ # $ * > ) ( } 9 +.@.Q M ..#.$.! F ; < < < < < < < < ; ; ; ; ; ; ; ; ; ; < < < < < < < ; F F ! %.&.9 } U ~ , * $ - @ + .     ",
"% & # $ = ) ^ s V j p *.=.-.;.>.,.! ! < < < < < < < ; ; '.'.'.'.).).).'.'.'.; ; < < < < < < ; ! ! z p j e !.^ ) > * - @ % . .   ",
"% & - ~.X {.[ ].c l B P ^./.(._.:.! < < < < < < ; ; ).).).'.'.).).).).).'.'.'.'.; ; < < < < < < ! P t W 0 <.[ ~ X * - & % + .   ",
"@ # $ > ) ^ !.[.+.}.Q ` |.1.2.3.! < < < < < < ; 4.4.).).).).).).).).).).).'.'.'.'.'.; < < < < < < ! x D k [.2 ] ' = $ # @ + .   ",
"& # * , ) U 1 c m u O -.;.5.6.7.! < < < < < ; 4.4.).).).8.9.9.8.8.8.8.9.9.).'.'.'.'.'.; < < < < < ! 0.u o a.| U ) = $ # & + .   ",
"# $ * X { [ 8 b.}.c.d.e.f.g.h.! < < < < < < ; i.i.j.j.k.8.8.8.8.8.8.8.8.8.8.l.l.'.'.'.; < < < < < < ! w D b.8 [ T , * $ & + % . ",
"# $ = ' / | m.n.o.p.q.r.s.t.! < < < < < < < ; 4.4.k.k.j.k.8.8.8.8.8.8.8.8.8.8.l.l.'.).; < < < < < < < ! u.n.9 } ] ' = $ # @ + . ",
"# $ = ) v.w.a x.y.z.A.B.2.! < < < < < < < 4.4.k.k.9.9.C.D.E.8.8.8.8.8.8.E.D.C.9.9.8.8.).! < < < < < < < ! o b | ( ) = $ # @ + . ",
"# * > F.G.H.I.J.K.L.M.N.! F F < < < < < ! i.j.j.j.j.C.C.D.C.E.8.8.8.8.E.C.D.C.C.E.E.8.8.).! < < < < < F F ! O.7 U ~ > $ # @ + . ",
"$ * , T [ V +.t P.Q./.R.S.! ! F F < < < ! 4.k.k.k.k.T.C.D.C.C.8.8.8.8.C.C.D.C.E.8.8.8.8.).! < < < F F ! ! C r V [ T , * $ @ + . ",
"$ U.' ] } 9 q V.W.X.1.Y.Z.`. +! ! F F F F ! i.j.j.j.k.T.8.8.8.8.E.E.8.8.8.8.8.8.8.8.8.).! F F F F ! ! .+0.t ++9 s { ' U.$ @ + + ",
"$ @+' ^ } 9 l z N |.#+$+%+&+*+=+-+! ! F F F ! 4.k.k.8.8.8.8.8.8.9.9.8.8.8.8.8.8.8.8.).! F F F ! ! ;+>+,+'+A W 9 } ] ' * $ @ + + ",
"$ @+) ^ | c l z M )+!+~+{+]+^+/+(+_+:+! ! ! ! ! ).8.8.8.8.8.8.8.8.8.8.8.8.8.8.8.8.).! ! ! ! ! <+[+}+|+1+2+x l d } ^ ' @+$ # @ + ",
"$ = ) ( 1 b 3+4+M 5+!+6+7+8+9+0+a+b+c+d+d+d+d+d+! ! ! 8.8.8.8.8.8.8.8.8.8.8.8.! ! ! e+f+g+h+i+j+k+l+m+n+d.y 3+c | ^ ) @+$ # @ + ",
"$ = ) ( 1 b 3+4+` 5+o+6+7+p+q+r+s+t+u+v+w+x+d+d+d+d+d+! ! ! ! ! ! ! ! ! ! ! ! y+z+A+B+C+D+E+F+G+H+I+J+K+K L+o b | ^ ) @+$ # @ + ",
"$ = ) ( | b 3+4+` 5+!+6+M+N+O+P+Q+R+S+T+U+V+d+d+d+d+! F F W+X+X+W+W+X+X+W+F F ! Y+Z+`+C+ @.@+@G+@@#@$@%@K y m c | ^ ) @+$ # @ + ",
"$ @+) ^ | c E *.M e.f.&@*@=@-@;@>@,@'@)@!@~@{@]@d+! F F W+^@/@X+W+W+X+/@^@W+F F ! (@_@:@s+<@[@=@8.E.}@|@I z l m.} ^ ' @+$ # + + ",
"$ @+' ^ } 9 l z 1@2@3@g.h.=@4@5@6@7@8@9@0@a@b@c@! F F W+^@^@/@W+).).W+/@^@^@W+F F ! d@e@f@g@h@8.8.8.E.i@j@A W 9 } ] ' @+$ # + + ",
"$ U.' ] s 9 q t W.k@1.l@m@n@o@p@q@r@s@t@u@v@w@! F F F W+^@/@X+W+).).W+X+/@^@W+F F F ! x@y@z@A@B@8.8.E.C@O B ++9 s { ' U.$ @ + + ",
"$ * , T [ V r C P D@;.E@F@G@H@I@J@K@L@M@N@O@P@! F F F W+X+X+W+).).).).W+X+X+W+F F F ! Q@R@S@T@U@).8.8.D@P @.b.V [ T , * $ @ + . ",
"# * > T U 7 j D Q V@W@X@Y@Z@`@ #.#+#@###$#%#! < < < F F W+W+).).8.8.).4.W+W+F F < < < ! &#*#=@{+).8.8.V@=#S j 7 U ~ > * # @ + . ",
"# $ = ) ( 1 c l z N -#;#>#,#'#)#!#~#{#]#^#/#! < < < < F ! ).).8.8.8.8.4.4.! F < < < < ! (#_#:#m@).8.).=.z l c | ( ) = $ # @ + . ",
"# $ = ' ] } 9 q <#P -.[#}#|#1#2#3#4#5#6#7#! < < < < < ! ).).8.8.8.8.8.k.4.i.! < < < < < ! 8#9#9.8.8.^.W.R +.V } 3 ' = $ # @ + . ",
"& $ U., T [ e j S Q L 0#a#b#c#d#e#!#f#g#h#! < < < < ! ).).8.8.8.8.8.k.k.i.4.4.! < < < < ! 9.9.).).9.K i#x.O.7 h 4 j#* $ & # # @ ",
"& # $ = ) ( | d l u.0.k#l#m#n#o#p#q#r#s#! < < < < < ! ).8.8.8.8.8.8.j.j.k.k.i.! < < < < < ! ).).9.q.t#u#m 0 | ( ) = $ # @ v#w#v#",
"@ # $ = ' ] s 8 r }.i#I x#y#z#A#B#C#D#E#! < < < < < ! 8.8.8.8.8.8.8.k.k.j.j.k.! < < < < < ! ).9.x#F#G#H#r 8 !.] X * $ # @ # - # ",
"+ & $ * > ) U | 0 l u I#J#K#L#M#N#O#P#Q#! < < < < ! 8.8.).8.8.8.8.8.8.8.k.4.k.k.! < < < < ! 9.R#S#T#o.U#V#W#[ ~ , * $ & % + + . ",
"+ & # $ = ' { [ 8 O.D y.X#Y#Z#`# $Z..$! F < < < < ! 8.8.).8.8.E.).).E.8.8.).8.8.! < < < < F ! +$@$#$$$%$&$!.^ X = $ # @ + . .   ",
"+ @ # $ * > ) *$w.9 k =$i#F#-$;$>.#@>$! F < < < < ! 8.8.).9.8.E.).).E.8.9.).8.8.! < < < < F ! ,$i#'$)$!$<.*$~ > * $ & @ + .     ",
"+ % & # $ = ' ~${$]$a ^$o./$($..;._$! F F < < < < ! 8.8.8.9.E.E.9.9.E.E.9.8.8.8.! < < < < F F ! :$<$[$W#[ ^ ) }$$ # @ % + .     ",
". + @ # $ * > ~ *$|$&$O.1$u.Y M 2$! F F < < < < < ! k.8.8.).9.E.9.9.E.9.).8.8.8.! < < < < < F F ! V#8 2 ^ ~ X * - # % + . .     ",
". + % @ # $ }$3$4$5$|$8 O.l R Z ! F < < < < < < ! i.j.j.8.8.).9.9.9.9.).8.8.8.8.).! < < < < < F F ! } ^ ) , ~.$ # @ + + .       ",
". . + % & # $ > 3${.*$} V a l ! < < < < < F < < ! 4.k.8.8.8.8.).).).).8.8.8.8.8.).! < < F < < < < F ! ) , = $ - # % + + .       ",
"  . . + @ # - $ = ' ~ U } ! ! < < < < < < < < < ! 6$8.8.8.8.8.8.8.8.8.8.8.8.8.8.).! < < < < < < < < < ! ! $ $ # @ + % .         ",
"  . . + % @ # $ $ = ' ! ! < < < < F < < < < < < ! ).8.8.8.8.8.8.8.8.8.8.8.8.8.8.).! < < < < < < F < < < < ! ! @ + + . .         ",
"    . . + % & # $ $ ! < < < < < < < < < F < < < ! ).8.8.8.8.8.8.8.8.8.l.l.8.8.8.).! < < < F < < < < < < < < < ! + . .           ",
"      . . + % & # ! < < < < < F < < < < < < < < ! ).8.8.8.8.8.8.8.l.l.l.l.8.8.8.).F < < < < < < < < F < < < < < ! .             ",
"      . . . + % & # ! ! < < F < < < < F < < < < F ! 8.8.8.8.8.E.E.7$7$l.l.8.8.8.! F < < < < F < < < < F < < ! ! .               ",
"        . . . + % @ # # ! ! F F < < F F < < < < F ! 8.8.8.8.8.).).'.'.l.l.l.8.8.! F < < < < F F < < F F ! ! . .                 ",
"          . . . + % @ # # $ ! ! F F F F F F F F F ! ).8.8.8.).9.9.9.9.'.l.l.8.).! F F F F F F F F F ! ! + . . . 8$8$            ",
"            . . . : % @ & # # $ ! ! ! F F F F F F ! ).).8.8.9.W#| } s 9.l.l.).).! F F F F F F ! ! ! % + + + . 8$8$8$8$          ",
"              . _ _ : + % @ # # $ $ * ! ! ! ! ! ! T 9.).).).9.*$/ ^ { 9.'.'.).9.= ! ! ! ! ! ! @ % + + + + + .                   ",
"                  . . . + + @ @ # # $ $ $ * = = > , 9.E.E.E.9.) ' ' ' 9.E.E.E.9.$ $ # # # @ @ + + . . .                         ",
"                    . . . + + + @ @ @ # # $ $ $ $ * * 9.9.9.= = = * * * 9.9.9.$ # # @ @ @ + + + . . _ 8$                        ",
"                        . . . + + + + @ @ @ # # # $ $ $ $ $ $ $ $ $ $ $ # # # @ @ @ + + + + . . . 8$8$8$8$                      ",
"                            . . . . + + + + @ @ @ @ @ # # # # # # # @ @ @ @ @ + + + + . . . .                                   ",
"                                  . . . . + + + + + + + + @ @ @ + + + + + + + + . . . .                                         "};
