/* XPM */
static char * exit_player_back_xpm[] = {
"64 64 505 2",
"  	c #D7C6A2",
". 	c #D7C6A3",
"+ 	c #D6C6A3",
"@ 	c #D6C5A4",
"# 	c #D5C5A5",
"$ 	c #D4C4A6",
"% 	c #D6C5A3",
"& 	c #D5C5A4",
"* 	c #D3C4A7",
"= 	c #D2C3A8",
"- 	c #D4C5A6",
"; 	c #62784A",
"> 	c #D2C3A9",
", 	c #D1C3A9",
"' 	c #D1C2AA",
") 	c #D0C2AB",
"! 	c #171A0F",
"~ 	c #CFC2AC",
"{ 	c #CFC1AD",
"] 	c #CEC1AD",
"^ 	c #CEC1AE",
"/ 	c #CDC1AE",
"( 	c #CDC0AE",
"_ 	c #7F7F80",
": 	c #7F7F81",
"< 	c #4E5332",
"[ 	c #CCC0B0",
"} 	c #CBBFB1",
"| 	c #CABFB2",
"1 	c #CABEB2",
"2 	c #CBC0B0",
"3 	c #7A7F91",
"4 	c #7A7F90",
"5 	c #7E7F82",
"6 	c #7E7F83",
"7 	c #C9BEB3",
"8 	c #C8BEB4",
"9 	c #C7BDB5",
"0 	c #C6BDB6",
"a 	c #C5BCB7",
"b 	c #C6BCB7",
"c 	c #C6BCB6",
"d 	c #C7BCB6",
"e 	c #C9BEB4",
"f 	c #777F99",
"g 	c #787F97",
"h 	c #797F95",
"i 	c #797F92",
"j 	c #C5BBB8",
"k 	c #C3BBBA",
"l 	c #C2BABB",
"m 	c #C1BABB",
"n 	c #C0BABC",
"o 	c #C1BABC",
"p 	c #C1B9BC",
"q 	c #C3BABA",
"r 	c #C4BBB9",
"s 	c #CBBFB0",
"t 	c #BEB8BF",
"u 	c #BCB8C0",
"v 	c #BBB8C2",
"w 	c #BAB7C2",
"x 	c #BBB7C2",
"y 	c #BCB7C1",
"z 	c #BCB7C0",
"A 	c #BDB7C0",
"B 	c #BEB7BF",
"C 	c #BFB8BE",
"D 	c #C0B9BD",
"E 	c #C2B9BB",
"F 	c #243117",
"G 	c #B6B5C6",
"H 	c #B1B9CB",
"I 	c #B3B5C8",
"J 	c #B4B4C8",
"K 	c #B4B4C7",
"L 	c #B5B3C7",
"M 	c #B6B3C6",
"N 	c #B7B3C5",
"O 	c #B8B4C4",
"P 	c #B9B5C3",
"Q 	c #BBB6C2",
"R 	c #BEB8BE",
"S 	c #C0B9BC",
"T 	c #CFC1AC",
"U 	c #CDC0AF",
"V 	c #C8BDB4",
"W 	c #C2BABA",
"X 	c #D1C3AA",
"Y 	c #BAB6C2",
"Z 	c #BAB5C2",
"` 	c #B5B3C6",
" .	c #CCBFB0",
"..	c #B0B0CA",
"+.	c #C3BBB9",
"@.	c #BFB8BD",
"#.	c #ABAECF",
"$.	c #A5ACD3",
"%.	c #717FA9",
"&.	c #737EA2",
"*.	c #BCB6C0",
"=.	c #B7B4C5",
"-.	c #B2B1C9",
";.	c #ACAECE",
">.	c #A5ADD3",
",.	c #9BB0DB",
"'.	c #CBC0B1",
").	c #D3C4A8",
"!.	c #CFC2AD",
"~.	c #C9BFB3",
"{.	c #B3B2C8",
"].	c #ACAFCE",
"^.	c #A3B1D5",
"/.	c #A5C0DF",
"(.	c #A8CBE6",
"_.	c #CABFB3",
":.	c #C8BEB5",
"<.	c #BFB9BD",
"[.	c #B0B0CB",
"}.	c #AAADCF",
"|.	c #A1ACD6",
"1.	c #A4C0E2",
"2.	c #A6ABD2",
"3.	c #9DA9D8",
"4.	c #92B3E0",
"5.	c #B7B5C5",
"6.	c #C6BDB7",
"7.	c #C4BBB8",
"8.	c #B9B6C3",
"9.	c #B4B3C7",
"0.	c #AFB0CC",
"a.	c #A8ADD1",
"b.	c #A1AAD5",
"c.	c #9AA7DA",
"d.	c #C7BDB6",
"e.	c #C2BBBB",
"f.	c #BCB9C0",
"g.	c #B6B6C6",
"h.	c #B1B3CA",
"i.	c #ABB0CF",
"j.	c #A4ACD3",
"k.	c #9BACD9",
"l.	c #BDB8C0",
"m.	c #797F93",
"n.	c #778099",
"o.	c #C0BABD",
"p.	c #BAB8C2",
"q.	c #B4B5C7",
"r.	c #AEB2CC",
"s.	c #A8AFD1",
"t.	c #7A7F8F",
"u.	c #797F94",
"v.	c #777F9A",
"w.	c #747FA2",
"x.	c #BFB9BE",
"y.	c #B9B7C4",
"z.	c #B2B4C9",
"A.	c #ADB0CD",
"B.	c #A6ADD2",
"C.	c #C5BCB8",
"D.	c #B8B6C4",
"E.	c #B2B2C9",
"F.	c #A5ABD3",
"G.	c #9BABD9",
"H.	c #D3C3A7",
"I.	c #BDB7BF",
"J.	c #B8B5C4",
"K.	c #B1B1CA",
"L.	c #A3AAD4",
"M.	c #9AA9DA",
"N.	c #91ADE0",
"O.	c #88C6E7",
"P.	c #AFB3CC",
"Q.	c #C3BAB9",
"R.	c #D3C3A8",
"S.	c #A9ACD0",
"T.	c #A2A9D5",
"U.	c #99A7DA",
"V.	c #90AAE0",
"W.	c #87B3E5",
"X.	c #82BAE8",
"Y.	c #82D5EC",
"Z.	c #9BB6DD",
"`.	c #A2BDDB",
" +	c #A4BCD7",
".+	c #B5B4C6",
"++	c #AFAFCB",
"@+	c #A8ACD1",
"#+	c #A1A8D6",
"$+	c #99A5DA",
"%+	c #90A4E0",
"&+	c #89A5E4",
"*+	c #82A9E7",
"=+	c #7BB6EB",
"-+	c #79C2EC",
";+	c #9EF0EF",
">+	c #90A6E0",
",+	c #94AEDF",
"'+	c #9EC4E3",
")+	c #D0DEE7",
"!+	c #AACAE0",
"~+	c #AEB8CD",
"{+	c #C1B9BB",
"]+	c #BCB6C1",
"^+	c #AFAFCC",
"/+	c #A0A8D6",
"(+	c #98A4DB",
"_+	c #91A2DF",
":+	c #89A0E3",
"<+	c #82A2E7",
"[+	c #7CB1EA",
"}+	c #82DDEE",
"|+	c #D3F5EF",
"1+	c #F8F5F0",
"2+	c #75B0ED",
"3+	c #77A8EB",
"4+	c #7CA1E9",
"5+	c #81ABE8",
"6+	c #89A2E3",
"7+	c #91A4DF",
"8+	c #97A8DC",
"9+	c #9ABEE1",
"0+	c #B6CEE2",
"a+	c #A8BFD8",
"b+	c #A8ABD1",
"c+	c #91A1DF",
"d+	c #899FE3",
"e+	c #829FE7",
"f+	c #7CADEA",
"g+	c #7CCBED",
"h+	c #A7EBEF",
"i+	c #C7F5F0",
"j+	c #E3F5F0",
"k+	c #F6F5F0",
"l+	c #79D4EF",
"m+	c #73C5EF",
"n+	c #72B2EE",
"o+	c #77AAED",
"p+	c #789DEB",
"q+	c #7C9CE9",
"r+	c #82A0E7",
"s+	c #88A4E4",
"t+	c #90A5E0",
"u+	c #97A7DC",
"v+	c #9CAED9",
"w+	c #A4B0D4",
"x+	c #A8B6D2",
"y+	c #BBB7C1",
"z+	c #98A5DB",
"A+	c #90A3E0",
"B+	c #89A2E4",
"C+	c #81A6E7",
"D+	c #7CA9EA",
"E+	c #77B0EC",
"F+	c #75C1EE",
"G+	c #83E4EF",
"H+	c #A1F5F0",
"I+	c #EBF5F0",
"J+	c #8D4953",
"K+	c #76C9EF",
"L+	c #72ADEE",
"M+	c #7EB3ED",
"N+	c #7DA2E9",
"O+	c #82A6E7",
"P+	c #88A7E4",
"Q+	c #97A7DB",
"R+	c #A0AAD6",
"S+	c #A6AED2",
"T+	c #ACB2CE",
"U+	c #A1A9D6",
"V+	c #98A6DB",
"W+	c #91A5DF",
"X+	c #89A4E3",
"Y+	c #81AAE8",
"Z+	c #7CB1EB",
"`+	c #78B9EC",
" @	c #78C3EE",
".@	c #78C8EF",
"+@	c #90F0EF",
"@@	c #CBF5F0",
"#@	c #D8F5F0",
"$@	c #EFF5F0",
"%@	c #7BC5EF",
"&@	c #75A8ED",
"*@	c #78A2EB",
"=@	c #82AAE7",
"-@	c #89A6E4",
";@	c #99A7DB",
">@	c #A1AAD6",
",@	c #A3B3D6",
"'@	c #AFC8DD",
")@	c #B6B4C6",
"!@	c #B0B1CB",
"~@	c #A9ADD0",
"{@	c #8AA5E3",
"]@	c #82B0E8",
"^@	c #8FD1ED",
"/@	c #AEE2EE",
"(@	c #93D7EE",
"_@	c #8DD9EF",
":@	c #B5EBEF",
"<@	c #A1F2F0",
"[@	c #A0F1F0",
"}@	c #BFF5F0",
"|@	c #7FBBEE",
"1@	c #7CB7EC",
"2@	c #85B8EB",
"3@	c #8BB5E8",
"4@	c #8BA3E2",
"5@	c #93A4DE",
"6@	c #A2AAD5",
"7@	c #A7AFD2",
"8@	c #ABB9D2",
"9@	c #B4B5C8",
"0@	c #B0B1CA",
"a@	c #A2AAD4",
"b@	c #9BA7D9",
"c@	c #92A7DF",
"d@	c #89AEE4",
"e@	c #8BC9EB",
"f@	c #CDE8EF",
"g@	c #EBF4EF",
"h@	c #C4ECEF",
"i@	c #9BDCEF",
"j@	c #D0F0EF",
"k@	c #ADF1F0",
"l@	c #97EFF0",
"m@	c #7AA9EB",
"n@	c #8BB6EA",
"o@	c #8FB4E8",
"p@	c #8CA1E2",
"q@	c #94A3DD",
"r@	c #9CA6D8",
"s@	c #A4AAD3",
"t@	c #ABADCF",
"u@	c #B1B1C9",
"v@	c #B3B1C8",
"w@	c #A2AED5",
"x@	c #9AACDA",
"y@	c #93A8DE",
"z@	c #8EA2E1",
"A@	c #87B8E8",
"B@	c #C1E3EE",
"C@	c #E7F4EF",
"D@	c #C3EFEF",
"E@	c #8FEAEF",
"F@	c #91E8EF",
"G@	c #97F2EF",
"H@	c #BAF4F0",
"I@	c #7FC7EC",
"J@	c #81A1E7",
"K@	c #88A0E4",
"L@	c #8FA1E0",
"M@	c #97A4DC",
"N@	c #9EA6D7",
"O@	c #A6AAD2",
"P@	c #ADAECD",
"Q@	c #B5B2C7",
"R@	c #AEAFCC",
"S@	c #A0B5D7",
"T@	c #A7CBE5",
"U@	c #97B9E3",
"V@	c #8EABE2",
"W@	c #88B7E6",
"X@	c #8CCFEB",
"Y@	c #93DCED",
"Z@	c #8BDEEE",
"`@	c #79C1ED",
" #	c #77C4EE",
".#	c #7FE1EF",
"+#	c #81B2E8",
"@#	c #89A7E4",
"##	c #BBB6C1",
"$#	c #AEB1CC",
"%#	c #A1BADA",
"&#	c #BED7E8",
"*#	c #A7C5E4",
"=#	c #568DD7",
"-#	c #549ADD",
";#	c #84B0E6",
">#	c #7FB9E9",
",#	c #7DCBEC",
"'#	c #78BCEC",
")#	c #76C2EE",
"!#	c #85EAEF",
"~#	c #82BDE8",
"{#	c #89B1E4",
"]#	c #92AADF",
"^#	c #BEB7BE",
"/#	c #AAB0CF",
"(#	c #9AC0DF",
"_#	c #5FA0D7",
":#	c #5893D6",
"<#	c #5497DA",
"[#	c #519CDE",
"}#	c #82B4E7",
"|#	c #7DB5EA",
"1#	c #79B6EB",
"2#	c #77BCED",
"3#	c #8CB6E3",
"4#	c #94B0DE",
"5#	c #9DACD8",
"6#	c #ADB1CD",
"7#	c #A3B3D5",
"8#	c #9DB2D8",
"9#	c #95B4DD",
"0#	c #90B2E0",
"a#	c #8AB1E3",
"b#	c #80B0E8",
"c#	c #7CB2EA",
"d#	c #7BC0EC",
"e#	c #90B4E0",
"f#	c #97B2DC",
"g#	c #9FAFD7",
"h#	c #A6B0D2",
"i#	c #AFB1CC",
"j#	c #B9B7C3",
"k#	c #7C7F8B",
"l#	c #B0B3CB",
"m#	c #A9B2D0",
"n#	c #A1B3D6",
"o#	c #9AB2DA",
"p#	c #94B1DE",
"q#	c #8FAFE1",
"r#	c #89AFE4",
"s#	c #84AEE6",
"t#	c #80A8E8",
"u#	c #FDFFD6",
"v#	c #9AB3DA",
"w#	c #A2B2D5",
"x#	c #B5B7C6",
"y#	c #BBB9C1",
"z#	c #D5C5A6",
"A#	c #D4C6A6",
"B#	c #ADB3CD",
"C#	c #A6B2D2",
"D#	c #A0B1D7",
"E#	c #99AFDA",
"F#	c #94AEDE",
"G#	c #8DAFE1",
"H#	c #89ABE4",
"I#	c #85A3E5",
"J#	c #E6DAAD",
"K#	c #9EB5D8",
"L#	c #A5B3D3",
"M#	c #B3B6C8",
"N#	c #B9B8C4",
"O#	c #BFBABE",
"P#	c #B7B6C5",
"Q#	c #B1B4CA",
"R#	c #AAB3CF",
"S#	c #A5B0D3",
"T#	c #9FAED7",
"U#	c #99ACDA",
"V#	c #93ACDE",
"W#	c #8EA8E1",
"X#	c #8AA2E3",
"Y#	c #A2B5D5",
"Z#	c #A9B5D0",
"`#	c #B0B5CB",
" $	c #B6B7C6",
".$	c #C1BBBB",
"+$	c #C5BDB8",
"@$	c #C9BFB4",
"#$	c #B5B5C6",
"$$	c #AFB4CC",
"%$	c #AAB1CF",
"&$	c #A5AED3",
"*$	c #A0ACD6",
"=$	c #96A6DD",
"-$	c #9F8965",
";$	c #AEB5CC",
">$	c #B4B6C7",
",$	c #B9B9C3",
"'$	c #BEBABE",
")$	c #C3BCBA",
"!$	c #C7BEB5",
"~$	c #CDC1AF",
"{$	c #BDB9BF",
"]$	c #AFB2CB",
"^$	c #ABAFCF",
"/$	c #9CA7D9",
"($	c #B5B5C7",
"_$	c #BDBAC0",
":$	c #C1BCBC",
"<$	c #C5BEB7",
"[$	c #7A8091",
"}$	c #788096",
"|$	c #76809B",
"1$	c #C1BBBC",
"2$	c #B8B7C4",
"3$	c #B5B4C7",
"4$	c #A7ACD1",
"5$	c #BDB8BF",
"6$	c #C0BBBD",
"7$	c #C4BDB9",
"8$	c #D2C4A8",
"9$	c #CAC0B2",
"0$	c #C0BBBC",
"a$	c #B1B0CA",
"b$	c #D0C3AB",
"c$	c #CEC2AE",
"d$	c #CCC1B0",
"e$	c #302D21",
"f$	c #7F7F7F",
"                            . . . + + + + + @ @ @ @ # # # # # # # # # @ @ @ @ + + + + + . . .                                   ",
"                        . . . + + + + @ @ @ # # # $ $ $ $ $ $ $ $ $ $ $ # # # @ @ @ + + + + . . .                               ",
"                    . . . + + % @ & & # # $ $ $ * * * = = = = = = = * * * * $ $ - # & & @ % + % . . .                           ",
"                  . . % + % @ & # # $ ; $ * = = > , ' ' ' ) ) ) ' ' ' , , , = * * $ $ # # @ ; % + . . .                         ",
"              . . . + + + & # # $ $ ! ; ; , ' ) ~ { ] ^ / ( ( ( ^ ] ] { ~ ) ' , = = * $ $ ; ; ! % + + . . .                     ",
"            . . _ : : @ & # $ $ * = ! < ; ; ] ( [ [ } | | | 1 | | } } 2 [ ( 3 4 ) ' > = ; ; < ! & @ % + . . .                   ",
"          . . _ : : 5 6 # $ * = > ! < < < ; ; 1 7 8 9 0 a a b c c d 9 8 e f g h i { ) ; ; < < < ! # @ % + . . .                 ",
"        . . . + + & # # $ * = ' ) ! < < < ; ; ; j k l m n n o p l l q r j c 9 e | s ; ; ; < < < ! # # & % + . . .               ",
"        . . + + & # $ $ = , ) { ( ! < < < < ; ; ; t u v w w x y z A B C D E q j d ; ; ; < < < < ! $ $ # & % + . . .             ",
"      . . + + & # $ * = , ) ] [ ! F < < < < < ; ; ; G H I J K L M N O P Q z R S ; ; ; < < < < < F ! $ $ # & + + . .             ",
"    . . + % & # $ * > ) T ( s 7 ! F < < < < < < ; ; ; ; ; ; ; ; ; ; ; ; ; ; ; ; ; ; < < < < < < F ! = $ $ - & % + . .           ",
"  . . + % @ # $ * = ' T U } e c ! F < < < < < < < < ; ; ; ; ; ; ; ; ; ; ; ; ; ; < < < < < < < < F ! ' = * $ # @ % + . .         ",
"  . . + @ # # $ = ' T U } V a W ! F < < < < < < < < < < < < < < < < < < < < < < < < < < < < < < F ! T ' = $ # # @ + . .         ",
". . + % & # $ = X ~ U } V j l C ! F < < < < < < < < < < < < < < < < < < < < < < < < < < < < < < F ! ( T , * $ # & + + . .       ",
". + % @ # $ * , ) ( } V j l R Y ! F F < < < F F < < < < < < < < < < < < < < < < < < < F F < < < F ! } ^ ) > * $ # @ % + .       ",
". + @ # $ * = ) ] s e a E t Z ` ! F F F F F F < < < < < < < < < < < < < < < < < < < < < F F F F F ! e  .] ) = * # # @ + . .     ",
". % & # $ = ' T [ 7 c W C Y ` ..! F F F F < < < < < < < < < < < < < < < < < < < < < < < < F F F F ! c 1 U T ' = $ # # % % .     ",
"+ @ # $ * > ) ( } 9 +.@.Q M ..#.$.! F F < < < < < < < < < < < < < < < < < < < < < < < < < < F F ! %.&.9 } U ~ , * $ - @ + .     ",
"% & # $ = ) ^ s V j p *.=.-.;.>.,.! ! < < < < < < < < < < < < < < < < < < < < < < < < < < < < F F z p j e '.^ ) > * - @ % . .   ",
"% & - ).X !.[ ~.c l B P {.].^./.(.! < < < < < < < < < < < < < < < < < < < < < < < < < < < < < < ! P t W 0 _.[ ~ X * - & % + .   ",
"@ # $ > ) ^ '.:.+.<.Q ` [.}.|.1.! < < < < < < < < < < < < < < < < < < < < < < < < < < < < < < < < ! x D k :.2 ] ' = $ # @ + .   ",
"& # * , ) U 1 c m u O -.;.2.3.4.! < < < < < < < < < < < < < < < < < < < < < < < < < < < < < < < < ! 5.u o 6.| U ) = $ # & + .   ",
"# $ * X { [ 8 7.<.8.9.0.a.b.c.! F < < < < < < < < < < < < < < < < < < < < < < < < < < < < < < < < < ! w D 7.8 [ T , * $ & + % . ",
"# $ = ' / | d.e.f.g.h.i.j.k.! F F F < < < < < < < < < < < < < < < < < < < < < < < < < < < < < < F F F ! l.e.9 } ] ' = $ # @ + . ",
"# $ = ) m.n.a o.p.q.r.s.|.! F F F F F < < < < < < < < < < < < < < < < < < < < < < < < < < < F F F F F F ! o b | ( ) = $ # @ + . ",
"# * > t.u.v.w.x.y.z.A.B.! F F F F F F F F < < < < < < < < < < < < < < < < < < < < < < F F F F F F F F F F ! C.7 U ~ > $ # @ + . ",
"$ * , T [ V +.t D.E.].F.G.! ! F F F F F F F F F F < < < < < < < < < < < < < < F F F F F F F F F F F F ! ! C r V [ T , * $ @ + . ",
"$ H.' ] } 9 q I.J.K.}.L.M.N.O.! ! F F F F F F F F F F F F F F F F F F F F F F F F F F F F F F F F ! ! P.5.t Q.9 s { ' H.$ @ + + ",
"$ R.' ^ } 9 l z N [.S.T.U.V.W.X.Y.! ! F F F F F F F F F F F F F F F F F F F F F F F F F F F F ! ! Z.`. +.+A W 9 } ] ' * $ @ + + ",
"$ R.) ^ | c l z M ++@+#+$+%+&+*+=+-+;+! ! ! ! ! F F F F F F F F F F F F F F F F F F ! ! ! ! ! >+,+'+)+!+~+x l d } ^ ' R.$ # @ + ",
"$ = ) ( 1 b {+]+M ^+@+/+(+_+:+<+[+}+|+1+1+1+1+1+! ! ! F F F F F F F F F F F F ! ! ! 2+3+4+5+6+7+8+9+0+a+9.y {+c | ^ ) R.$ # @ + ",
"$ = ) ( 1 b {+]+` ^+b+/+(+c+d+e+f+g+h+i+j+k+1+1+1+1+1+! ! ! ! ! ! ! ! ! ! ! ! l+m+n+o+p+q+r+s+t+u+v+w+x+K y+o b | ^ ) R.$ # @ + ",
"$ = ) ( | b {+]+` ^+@+/+z+A+B+C+D+E+F+G+H+I+1+1+1+1+! F J+J+J+J+J+J+J+J+J+J+F ! K+L+M+p+N+O+P+t+Q+R+S+T+K y m c | ^ ) R.$ # @ + ",
"$ R.) ^ | c E *.M 0.a.U+V+W+X+Y+Z+`+ @.@+@@@#@$@1+! F F F F J+J+J+J+J+J+F F F F ! %@&@*@f+=@-@W+;@>@,@'@I z l d.} ^ ' R.$ # + + ",
"$ R.' ^ } 9 l z )@!@~@b.c.W+{@]@^@/@(@_@:@<@[@}@! F F F F F F F F F F F F F F F F ! |@1@2@3@4@5@c.6@7@8@9@A W 9 } ] ' R.$ # + + ",
"$ H.' ] s 9 q t J.0@}.a@b@c@d@e@f@g@h@i@j@k@l@! F F F F F F F F F F F F F F F F F F ! m@n@o@p@q@r@s@t@u@O B Q.9 s { ' H.$ @ + + ",
"$ * , T [ V r C P v@;.w@x@y@z@A@B@C@D@E@F@G@H@! F F F F F F F F F F F F F F F F F F ! I@J@K@L@M@N@O@P@v@P @.7.V [ T , * $ @ + . ",
"# * > T U 7 j D Q Q@R@S@T@U@V@W@X@Y@Z@`@ #.#! < < < < F F F F F F F F F F F F F < < < ! +#@#W+$+#+b+^+Q@##S j 7 U ~ > * # @ + . ",
"# $ = ) ( 1 c l z N $#%#&#*#=#-#;#>#,#'#)#!#! < < < < < < < F F F F F F < < < < < < < ! ~#{#]#b@L.}...=.z l c | ( ) = $ # @ + . ",
"# $ = ' ] } 9 q ^#P -./#(#_#:#<#[#}#|#1#2#! < < < < < < < < < < < < < < < < < < < < < < ! 3#4#5#>.].{.J.R +.V } 3 ' = $ # @ + . ",
"& $ H., T [ e j S Q L 6#7#8#9#0#a#;#b#c#d#! < < < < < < < < < < < < < < < < < < < < < < ! e#f#g#h#i#K j#o.C.7 h 4 k#* $ & # # @ ",
"& # $ = ) ( | d l l.5.l#m#n#o#p#q#r#s#t#! < < < < < < < < < < < < < < < < < u#u#< < < < < ! v#w#m#h.x#y#m 0 | ( ) = $ # @ z#A#z#",
"@ # $ = ' ] s 8 r <.j#I B#C#D#E#F#G#H#I#! < < < < < < < < < < < < < < < < u#J#J#u#< < < < ! K#L#B#M#N#O#r 8 '.] X * $ # @ # - # ",
"+ & $ * > ) U | 0 l u P#Q#R#S#T#U#V#W#X#! < < < < < < < < < < < < < < < < J#J#J#J#< < < < ! Y#Z#`# $f..$+$@$[ ~ , * $ & % + + . ",
"+ & # $ = ' { [ 8 C.D p.#$$$%$&$*$M.=$! F < < < < < < < < < < < < < < < < J#J#J#-$< < < < F ! ;$>$,$'$)$!$'.^ X = $ # @ + . .   ",
"+ @ # $ * > ) ~$n.9 k {$j#M#]$^$>.R+/$! F < < < < < < < < < < < < < < < < J#J#J#< < < < < F ! ($j#_$:$<$_.~$~ > * $ & @ + .     ",
"+ % & # $ = ' [$}$|$a 1$f.2$3$..;.4$! F F < < < < < < < < < < < < < < < < J#J#J#< < < < < F F ! 5$6$7$@$[ ^ ) 8$$ # @ % + .     ",
". + @ # $ * > ~ ~$9$!$C.0$l.Y M a$! F F < < < < < < < < < < < < < < < < < J#J#J#< < < < < < F F ! +$8 2 ^ ~ X * - # % + . .     ",
". + % @ # $ 8$b$c$d$9$8 C.l R Z ! F < < < < < < < < < < < < < < < < < < < J#J#J#< < < < < < < F F ! } ^ ) , ).$ # @ + + .       ",
". . + % & # $ > b$!.~$} V a l ! < < < < < < < < < < < < < < < < < < < < < J#J#J#< < F < < < < < < F ! ) , = $ - # % + + .       ",
"  . . + @ # - $ = ' ~ U } ! ! < < < < < < < < < < < < F < < < < < < < < < -$J#J#< < < < < < < < < < < ! ! $ $ # @ + % .         ",
"  . . + % @ # $ $ = ' ! ! < < < < < < < < < < < < < < < < < < < < < < < -$-$-$-$< < < < < < < < < < < < < ! ! @ + + . .         ",
"    . . + % & # $ $ ! < < < < < < < < < < < F < < < F < < < < < < F F F -$-$-$-$< < < < F < < < < < < < < < < ! + . .           ",
"      . . + % & # ! < < < < F < < < < < < F < < < < < < < < < < F ! ! -$-$-$-$< < < < < < < < < F < < < < < < < ! .             ",
"      . . . + % & # ! ! F F < < < < < < < < < < < F F < < < < F ! e$-$-$-$-$F F < < < < < F < < < F < < < < ! ! .               ",
"        . . . + % @ # # ! ! F F < < < F < < < < F F < < F F F ! e$e$-$-$-$e$F ! F F < < < < F < < < F F ! ! . .                 ",
"          . . . + % @ # # $ ! ! F F F F F F F F F F F F ! ! ! e$-$-$-$-$-$-$e$! ! F F F F F F F F F ! ! + . . . f$f$            ",
"            . . . : % @ & # # $ ! ! ! F F F F F F ! ! ! e$e$e$-$-$-$-$-$-$e$e$e$! < F F F F F ! ! ! % + + + . f$f$f$f$          ",
"              . _ _ : + % @ # # $ $ * ! ! ! ! ! ! e$e$e$e$e$e$e$e$e$e$e$e$e$e$e$e$! ! ! ! ! ! @ % + + + + + .                   ",
"                  . . . + + @ @ # # $ $ $ * = = > e$-$-$-$e$) ) ' ' ' e$-$-$-$e$$ $ # # # @ @ + + . . .                         ",
"                    . . . + + + @ @ @ # # $ $ $ $ * e$e$e$= = = = * * * e$e$e$$ # # @ @ @ + + + . . _ f$                        ",
"                        . . . + + + + @ @ @ # # # $ $ $ $ $ $ $ $ $ $ $ # # # @ @ @ + + + + . . . f$f$f$f$                      ",
"                            . . . . + + + + @ @ @ @ @ # # # # # # # @ @ @ @ @ + + + + . . . .                                   ",
"                                  . . . . + + + + + + + + @ @ @ + + + + + + + + . . . .                                         "};
