/* XPM */
static char * player_back_xpm[] = {
"64 64 11 1",
" 	c #D7C6A2",
".	c #62784A",
"+	c #171A0F",
"@	c #7F7F7F",
"#	c #4E5332",
"$	c #243117",
"%	c #8D4953",
"&	c #FDFFD6",
"*	c #E6DAAD",
"=	c #9F8965",
"-	c #302D21",
"                                                                ",
"                                                                ",
"                                                                ",
"                   .                          .                 ",
"                  +..                        ..+                ",
"        @@@       +#..                @@    ..#+                ",
"       @@@@@     +###..              @@@@  ..###+               ",
"                 +###...                  ...###+               ",
"                 +####...                ...####+               ",
"                +$#####...              ...#####$+              ",
"                +$######..................######$+              ",
"                +$########..............########$+              ",
"                +$##############################$+              ",
"                +$##############################$+              ",
"                +$$###$$###################$$###$+              ",
"                +$$$$$$#####################$$$$$+              ",
"                +$$$$########################$$$$+              ",
"                 +$$##########################$$+@@             ",
"                 ++############################$$               ",
"                 +##############################+               ",
"                +################################+              ",
"                +################################+              ",
"               +$#################################+             ",
"              +$$$##############################$$$+            ",
"    @@       +$$$$$###########################$$$$$$+           ",
"   @@@@     +$$$$$$$$######################$$$$$$$$$$+          ",
"             ++$$$$$$$$$$##############$$$$$$$$$$$$++           ",
"               ++$$$$$$$$$$$$$$$$$$$$$$$$$$$$$$$$++             ",
"                 ++$$$$$$$$$$$$$$$$$$$$$$$$$$$$++               ",
"                   +++++$$$$$$$$$$$$$$$$$$+++++                 ",
"                        +++$$$$$$$$$$$$+++                      ",
"                           ++++++++++++                         ",
"                          +$%%%%%%%%%%$+                        ",
"                         +$$$$%%%%%%$$$$+                       ",
"                        +$$$$$$$$$$$$$$$$+                      ",
"                       +$$$$$$$$$$$$$$$$$$+                     ",
"                       +$$$$$$$$$$$$$$$$$$+                     ",
"                      +####$$$$$$$$$$$$$###+                    ",
"              @@      +#######$$$$$$#######+                    ",
"             @@@@    +######################+           @       ",
"                     +######################+          @@@      ",
"                    +#################&&#####+                  ",
"                    +################&**&####+                  ",
"                    +################****####+                  ",
"                   +$################***=####$+                 ",
"        @          +$################***#####$+                 ",
"       @@@        +$$################***#####$$+                ",
"                 +$$#################***######$$+               ",
"                +$###################***#######$$+              ",
"               +#####################***##$######$+             ",
"             ++############$#########=**###########++           ",
"           ++#######################====#############++         ",
"          +###########$###$######$$$====####$##########+        ",
"         +####$######$##########$++====#########$#######+       ",
"          ++$$###########$$####$+-====$$#####$###$####++        ",
"            ++$$###$####$$##$$$+--===-$+$$####$###$$++          ",
"              ++$$$$$$$$$$$$+++-======-++$$$$$$$$$++    @@      ",
"         @      +++$$$$$$+++---======---+#$$$$$+++     @@@@     ",
"        @@@        ++++++----------------++++++                 ",
"                         -===-     -===-                        ",
"                          ---       ---           @@            ",
"                                                 @@@@           ",
"                                                                ",
"                                                                "};
