/* XPM */
static char * player_left_xpm[] = {
"64 64 22 1",
" 	c #D7C6A2",
".	c #7F7F7F",
"+	c #62784A",
"@	c #4E5332",
"#	c #171A0F",
"$	c #243117",
"%	c #9F8965",
"&	c #E6DAAD",
"*	c #FDFFD6",
"=	c #796E67",
"-	c #3D3734",
";	c #302D21",
">	c #364922",
",	c #84AE56",
"'	c #6B3840",
")	c #3A1F1D",
"!	c #B34D5C",
"~	c #8D4953",
"{	c #BD7247",
"]	c #CD9757",
"^	c #80592D",
"/	c #AB7B44",
"                                                                ",
"                                                                ",
"                                                                ",
"                                                                ",
"                                                                ",
"        ...                           ..                        ",
"       .....                         ..+@+++++                  ",
"                                     +@++@@@@#                  ",
"                                   +@++@@@@@@#.                 ",
"                                 +@++@@@@@@@$#..                ",
"                               +@++@@@@@@@@$#                   ",
"                 ..        ++++++@@@@@@@@@$$#                   ",
"                ....     +++++++$$@@@@@@$$$#                    ",
"                       +++@@@@@@@@$@@@$$$$$#                    ",
"                      ++@@@@@@@@@@@@$$$$$$#                     ",
"                     ++@@@@@@@@@@@@@@$$$$$#                     ",
"                     +++@@@@@@@@@@@@@@$$$$#    ...              ",
"                      %%++@@@@@@@@@@@@@@$$#   .....             ",
"                     %&&%%++@@@@@@@@@@@@@#                      ",
"                     %*&&==-+@@@@@@@@@@@@@#                     ",
"                     &;;%&==+@@@@@@@@@@@@@#                     ",
"                     &&&&&==-+@@@@@@@@@@@@$#                    ",
"                     &&%*====+@@@@@@@@@@@@$#                    ",
"                     &&>,;;&&+$@@@@@@@@@@@@$#                   ",
"    ..               &&>,,*&&%+$@@@@@@@@@@@@@#                  ",
"   ....             &&&>,***&&%+$@@@@@@@@@@@$$#                 ",
"                   ;;*&&**&&&&%%+$@@@@@@@@@$$$$#                ",
"                   %&&&&&&&&&%%#$@@@@@@@@@$$$$#                 ",
"                   %&&&&&&&&%%#$@@@@@@@@$$$$$#                  ",
"                    %&&&&&&%%#$@@@@@@@@$$$$##                   ",
"                     %&&&&%%#$@@@@@@$$$$$##                     ",
"                       %%%##$$$$$$$$$$$##                       ",
"                         ##############                         ",
"                         '')#$$$$$$#                            ",
"                        !~')#$$$$$$$#                           ",
"                       !~');#$$$$$$$#                           ",
"                       ~');;#$$@$$$$$#                          ",
"                       ));;;#$@@$@$$$#                          ",
"              ..        %&{;#$@@$@@@$$#                         ",
"             ....       %]{^#$@@@$@@$@#                 .       ",
"                        %*/{;#@@@$@@@@@#               ...      ",
"                        **]];#@@@@@@@@@#                        ",
"                       **&&{;#@@@$@@@@@@#                       ",
"                       *&&%;;#@@@@@@@@@@#                       ",
"                      **&%%;;#@@@@@@@@@@@#                      ",
"        .             %&&%;&;#@@@@@@@@@@@@#                     ",
"       ...            %&%;&&%#@@@@@@@@@@@@@#                    ",
"                      ;&;%&&%#@@@@@@@@@@@@@@#      ****         ",
"                       ;;%&&%#@@@@@@@@@@@@@@@#    *&&&&*        ",
"                         %&&%#@@@@@@@@@@@$@@@@#  *&&&&&&        ",
"                         %&&%#@@@$@@$@@@@@@@@@@# &&&&&&         ",
"                         %&&#@@@@@@@@@@@@@$@@@@#&%%%            ",
"                         %=&#@@@@$@@@$@@@@@$@@$#;;;             ",
"                         %=&#@@@@$@@@$@@@@@@$$#;;;              ",
"                         -=&#@@@@@$@@@$@@@@$$#                  ",
"                        ..=-$@@@@@$@@$$$$$$##                   ",
"                       ...--$$@@@$$$$$#####             ..      ",
"         .              **&&$$$$$$####                 ....     ",
"        ...            *%%%%######                              ",
"                                                                ",
"                                                  ..            ",
"                                                 ....           ",
"                                                                ",
"                                                                "};
