/* XPM */
static char * collectible_xpm[] = {
"64 64 8 1",
" 	c #D7C6A2",
".	c #7F7F7F",
"+	c #000000",
"@	c #001835",
"#	c #80B9FF",
"$	c #0F7CFF",
"%	c #001938",
"&	c #003B82",
"                                                                ",
"                                                                ",
"                                                                ",
"                                                                ",
"                                                                ",
"        ...                           ..                        ",
"       .....                         ....                       ",
"                                                                ",
"                                             ..                 ",
"                                            ....                ",
"                              ++                                ",
"                 ..          +@#+                               ",
"                ....         +@$+                               ",
"                            +%@$#+                              ",
"                            +%@$#+                              ",
"                           +&%@$##+                             ",
"                           +&%@$##+            ...              ",
"                          +&&%@$###+          .....             ",
"                          +&&%@$&##+                            ",
"                         +&&&%@$&###+                           ",
"                         +&&&%@$&&##+                           ",
"                        +&&&&%@#&&###+                          ",
"                        +&&&&%@#&&###+                          ",
"                       +&&&&&%@#&#####+                         ",
"    ..                 +&&&&&%@#&#&&##+                         ",
"   ....               +&&&&$&%@#&#&&###+                        ",
"                      +&&&&$&%@$&#&####+                        ",
"                     +&&&&&$&%@$&#&#####+                       ",
"                     +&$$&&$&%@###&#####+                       ",
"                    +&&$$$&$&%@##&#######+                      ",
"                    +&&&$$$$&%%##&##&&&&#+                      ",
"                   +&&&&$$$$&%%##&&&&&&###%                     ",
"                   +&&$$$$&%%%@###&&&&####+                     ",
"                   +&&&$$&&%%%%###########+                     ",
"                   +$$$&&$$&&&&#&%%&&%&%&&+                     ",
"                   +$$&&$$$&&&&#&%%&&%&&%&+                     ",
"                    +$&$&$&&&&@#&%%&&&%&%+                      ",
"                    +&&$&$&&&&@#&%%%&&%&&+                      ",
"              ..     +&&$&&&&$@#&%%%&&%%+                       ",
"             ....    +&&$&&&$$@#&%%%&&%%+               .       ",
"                      +&$&&&$$@#&%%%&&&+               ...      ",
"                      +&$&&$$$@#&%%%&%%+                        ",
"                      +&&&&$$$@#&%%%&%%+                        ",
"                       +&&$$$$@#&%%%&%+                         ",
"                       +&&$$$$@#&%%%&%+                         ",
"        .               +&$$$$@$&%%%&+                          ",
"       ...              +$$$$$@$&%%%&+    .                     ",
"                         +$$$$@$&%%%+    ...                    ",
"                         +$$$$@$&%%%+                           ",
"                          +$$$@$&&&%                            ",
"                          +$$$@$&&&+                            ",
"                           +$$@$&&+                             ",
"                           +$$%$&&+                             ",
"                            +$%$&+                              ",
"                            +$%$&+                              ",
"                        ...  +&$+                               ",
"                       .....  ++                        ..      ",
"         .                                             ....     ",
"        ...                                                     ",
"                                                                ",
"                                                  ..            ",
"                                                 ....           ",
"                                                                ",
"                                                                "};
