/* XPM */
static char * wall2_xpm[] = {
"64 64 10 1",
" 	c #D7C6A2",
".	c #363636",
"+	c #A7A6B4",
"@	c #CFD1E4",
"#	c #7F7F7F",
"$	c #E4E8F9",
"%	c #747178",
"&	c #8E8B9A",
"*	c #585858",
"=	c #353A43",
"                                  ...                           ",
"                               ...+++.                          ",
"                            ...+++++++.                         ",
"                         ...+++++@@@@++.                        ",
"                       ..+++@@@@@@@@@@@+..                      ",
"        ###           .++@@@@@@$$$$$@@@@++.                     ",
"       #####         .++@@@@@$$$$$$@@@@@@++.                    ",
"                    .%++++@@@@$$$$$$$@@@@@@+. .                 ",
"                  ..+++++++@@@@@@$$$$$$@@@@@+.+...              ",
"                 .++@@@@@@++++@@$$$$$$$$$@@@@++&++..            ",
"                .+++@@@@@$$$$$$$$$$$$$$$$$@@@@@++@@+..          ",
"                .+@@@$$$$$$$$$$$$$$$$$$$$$$@@@@+@@@@++.         ",
"                .+@@$$$$$$$$$$$$$$$$$$$$$$@@@@@@@@@@@+.         ",
"               .+@@@$$$$$$$$$$$$$$$$$$$$$@@@@@@+@$$@@@..        ",
"               .+@@$$$$$$$$$$$$$$$$$$$$@@@@@@@++@$$$@@@+.       ",
"               .@@@$$$$$$$$$$$$$$$$$$@@@@@@+++++$$$$@@@+.       ",
"               .@@$$$$$$$$$$$$$$$$$@@@@@+++++&&%$$$$$@@+.       ",
"              .@@$$$$$$$$$$$$$$$$@@@@+++@@@@@%%%%$$$$@@+.       ",
"              .@@@$$$$$$$$$$$$$$$$@@@@@@$$$@@@%%%$$$$@@++.      ",
"              .%@@@@$$$$$$$$$$$$$$$@@$$$$$$$@@@%%@$$$@@++.      ",
"              .%%@@@@$$$$$$$$$$$$$$$$$$$$$$$@@@%%@@@$@@++.      ",
"              .*%%@@@@@$$$$$$$$$$$$$$$$$$$$$$@@%%@@@@@&++.      ",
"              .*%%%@@@@$$$$$$$$$$$$$$$$$$$$$@@@%%%@@@@&++.      ",
"              .*%%%@@@$$$$$$$$$$$$$$$$$$$$@@@@+*%%%@@@&++.      ",
"    ##       .**%%%@@@$$$$$$$$$$$$$$$$$$$@@@@@+*%%%%%@&++.      ",
"   ####      .**%%%@@$$$$$$$$$$$$$$$$$$@@@@@@+&*%%%%%%&++.      ",
"             .**%%%@@@@@@@$$$$$$$$$$$@@@@@@@@+&**%%%%%&&+.      ",
"             .**%%%&+++@@@@@@$$$$$$@@@@@@@@@+&&**%%%%%&&++.     ",
"             .**%%%&++++%%@@@@@@$@@@@@@+++@@+&&**%%%%%&&++.     ",
"            .***%%%&++++%%%@@@@@@@@@++++@@@@@@@**%%%%%&&++.     ",
"            .***%%%&&++&*%%%@@@@@@+++++@@@$$$@@@**%%%%&&++.     ",
"            .***%%%&&++&*%%%%@@@@++++@@@@$$$$$$@@@%%%%&&+++.    ",
"           .*@@@%%%%&+&&*%%%%%@+++++@@@@$$$$$$$$@@@@%%&&++&.    ",
"          .=@@@@@%%%&+&&*%%%%%&++++@@@@$$$$$$$$$$$@@%%%&&+&.    ",
"         .@@@@$$$@%%&&&&*%%%%%&&+++@@@$$$$$$$$$$$$$&%%%&&&&.    ",
"         .%@$$$$$$@%&&&&**%%%%&&+++@@@$$$$$$$$$$$%%&%%%&&&%.    ",
"         .%@@$$$$$@@&&&%**%%%%&&++&@@$$$$$$$$$$+%%&&%%%&&&%.    ",
"         .%%@@@$$@@@%&&***%%@%%&&+&@@$$$$$$$$$@@@@&+%%%&&%.     ",
"         .*%@@@@$@@@%&%***@@@@%&&+&@@@$$$$$$$@@@@@@+%%%&%%.     ",
"         .*%@@@@@@@+%%%*@@$$$$@%&&&%@@@$$$$$$$$@@@@+*%%%%.      ",
"        .**%&++@@@++%%@@@$$$$$@@&&&%%@@@$$$$$$@@@@++*%%%*.      ",
"        .*%%&+++++++%@@@$$$$$$$@@&&%%%@@@$$@@@@@@+++**%*.       ",
"       .**%%&+++++++%@@@$$$$$$$@@@&%%%%@@@@@@@@@++++***.        ",
"       .**%%&&++++++%@@$$$$$$$$$@@&%%%%%@@@@@@@++++++*.         ",
"       .*%%%&&&+++++%%@$@@$$$$$$$@&*%%%%%%%++++++++++&.         ",
"        .*%%&&&+++++%%@@@@@$$$$@@%&*%%%%%%%++++++++++&.         ",
"       ##.%%%&&&+++&%%@@@@@@$$@@@%&*%%%%%%%++++++++++&.         ",
"          ..%%&&&+&%%%@@@@@@@$@@%%&**%%%%%%++++++++++&.         ",
"            .%%&&&&%%%&&&&+@@@@%%%&**%%%%%%&+++++++++&.         ",
"             .%%%%&%*%&&&+++@@@%%%&**%%%%%%&+++++++++&.         ",
"              .....**%&&&++++@%%%%&**%%%%%%&++++++++&&.         ",
"                  .**%&&&++++%%%%%&**%%%%%%&&++++++&&*.         ",
"                  .**%&&&++++%%%%%%***%%%%%&&&+++++&&.          ",
"                  .**%&&&++++%%%%%%***%%%%%&&&&+++&&*.          ",
"                  .**%%&&++++*%%%%****%%%%%&&&&&+&&%.           ",
"                   .*%%&&&+++*%%%.****%%%%%&&&&&&&%.            ",
"                    .*%&&&+++**%*.*****%%%%%&&&&&%%.    ##      ",
"         #           .%%&&&++***. ..***%%%%%&&&&%%.    ####     ",
"        ###           ..%&&&%**.   .****%%%%%&&%%.              ",
"                        ..%&**.     ..****%%%%%%.               ",
"                          ..*.        ..****%%%.  ##            ",
"                            .           .......  ####           ",
"                                                                ",
"                                                                "};
